<?xml version="1.0" encoding="UTF-8"?>
<!DOCTYPE svg PUBLIC "-//W3C//DTD SVG 1.1//EN" "http://www.w3.org/Graphics/SVG/1.1/DTD/svg11.dtd">
<svg xmlns="http://www.w3.org/2000/svg" version="1.1" width="2880px" height="2564px" style="shape-rendering:geometricPrecision; text-rendering:geometricPrecision; image-rendering:optimizeQuality; fill-rule:evenodd; clip-rule:evenodd" xmlns:xlink="http://www.w3.org/1999/xlink">
<g><path style="opacity:1" fill="#000000" d="M 442.5,90.5 C 443.496,90.4142 444.329,90.7476 445,91.5C 462.093,126.02 479.426,160.353 497,194.5C 500.868,205.103 504.534,215.77 508,226.5C 513.52,248.165 512.52,269.499 505,290.5C 493.573,311.739 475.74,322.406 451.5,322.5C 427.003,321.51 408.169,310.843 395,290.5C 390.306,281.774 385.639,273.107 381,264.5C 368.233,271.644 354.733,276.81 340.5,280C 312.803,281.736 291.637,270.902 277,247.5C 260.233,213.565 266.733,185.065 296.5,162C 311.362,152.065 327.029,143.398 343.5,136C 376.83,121.332 409.83,106.165 442.5,90.5 Z"/></g>
<g><path style="opacity:1" fill="#000000" d="M 2443.5,90.5 C 2478.48,106.321 2513.48,122.155 2548.5,138C 2568.83,146.534 2587.16,158.034 2603.5,172.5C 2624.88,198.468 2626.04,225.468 2607,253.5C 2584.08,280.691 2556.25,287.191 2523.5,273C 2518.22,269.776 2512.72,266.943 2507,264.5C 2501.53,275.43 2495.53,286.097 2489,296.5C 2468.84,320.105 2443.67,327.605 2413.5,319C 2392.09,308.911 2379.92,292.078 2377,268.5C 2375.79,254.323 2376.79,240.323 2380,226.5C 2383.47,215.77 2387.13,205.103 2391,194.5C 2408.75,159.993 2426.25,125.327 2443.5,90.5 Z"/></g>
<g><path style="opacity:1" fill="#000000" d="M 732.5,195.5 C 733.822,195.33 734.989,195.663 736,196.5C 753.093,231.02 770.426,265.353 788,299.5C 792.575,311.315 796.575,323.315 800,335.5C 804.437,355.614 803.104,375.281 796,394.5C 784.701,416.577 766.534,427.577 741.5,427.5C 717.385,426.204 698.885,415.537 686,395.5C 681.322,386.766 676.656,378.099 672,369.5C 659.795,376.235 646.961,381.402 633.5,385C 597.568,386.398 573.401,370.231 561,336.5C 554.356,308.758 562.189,286.258 584.5,269C 598.315,259.868 612.649,251.535 627.5,244C 662.83,228.332 697.83,212.165 732.5,195.5 Z"/></g>
<g><path style="opacity:1" fill="#000000" d="M 2152.5,195.5 C 2189.93,212.047 2227.26,228.881 2264.5,246C 2282.15,254.397 2298.32,264.897 2313,277.5C 2332.24,300.749 2334.58,325.749 2320,352.5C 2299.37,382.044 2271.87,391.211 2237.5,380C 2230.39,376.364 2223.23,372.864 2216,369.5C 2211.34,378.099 2206.68,386.766 2202,395.5C 2182.63,422.962 2156.47,432.462 2123.5,424C 2104.92,416.416 2093.08,402.916 2088,383.5C 2084.75,367.513 2084.75,351.513 2088,335.5C 2091.42,323.315 2095.42,311.315 2100,299.5C 2117.75,264.993 2135.25,230.327 2152.5,195.5 Z"/></g>
<g><path style="opacity:1" fill="#000000" d="M 1027.5,301.5 C 1028.82,301.33 1029.99,301.663 1031,302.5C 1049.61,339.377 1067.94,376.377 1086,413.5C 1092.71,430.886 1096.54,448.886 1097.5,467.5C 1098.14,490.816 1089.47,509.649 1071.5,524C 1045.06,537.931 1019.73,536.265 995.5,519C 990.966,514.801 986.799,510.301 983,505.5C 977.216,495.594 971.716,485.594 966.5,475.5C 953.938,482.741 940.604,487.908 926.5,491C 889.864,491.708 866.031,474.542 855,439.5C 849.62,412.773 857.787,391.273 879.5,375C 890.669,367.245 902.336,360.245 914.5,354C 952.498,336.998 990.164,319.498 1027.5,301.5 Z"/></g>
<g><path style="opacity:1" fill="#000000" d="M 1857.5,301.5 C 1890.48,316.321 1923.48,331.155 1956.5,346C 1974.47,353.979 1991.47,363.479 2007.5,374.5C 2036.12,397.864 2041.96,426.197 2025,459.5C 2004.05,488.551 1976.55,497.384 1942.5,486C 1935.5,482.5 1928.5,479 1921.5,475.5C 1916.28,485.594 1910.78,495.594 1905,505.5C 1884.92,530.453 1859.42,538.62 1828.5,530C 1805.3,519.787 1792.8,501.954 1791,476.5C 1790.23,465.415 1790.89,454.415 1793,443.5C 1795.4,433.304 1798.4,423.304 1802,413.5C 1820.24,376.017 1838.74,338.683 1857.5,301.5 Z"/></g>
<g><path style="opacity:1" fill="#000000" d="M 200.5,356.5 C 207.824,358.826 215.157,361.16 222.5,363.5C 224.102,365.074 226.102,365.741 228.5,365.5C 236.597,369.089 244.931,372.089 253.5,374.5C 255.509,376.065 257.843,377.065 260.5,377.5C 305.634,393.239 350.634,409.239 395.5,425.5C 397.102,427.074 399.102,427.741 401.5,427.5C 405.817,429.94 410.483,431.607 415.5,432.5C 417.395,434.241 419.728,435.241 422.5,435.5C 450.565,445.3 478.565,455.3 506.5,465.5C 510.233,467.411 514.233,468.744 518.5,469.5C 563.577,486.636 608.911,502.969 654.5,518.5C 656.102,520.074 658.102,520.741 660.5,520.5C 668.553,524.075 676.886,527.075 685.5,529.5C 687.509,531.065 689.843,532.065 692.5,532.5C 692.833,532.5 693.167,532.5 693.5,532.5C 695.102,534.074 697.102,534.741 699.5,534.5C 707.497,538.058 715.831,541.058 724.5,543.5C 726.509,545.065 728.843,546.065 731.5,546.5C 742.252,550.224 752.919,553.891 763.5,557.5C 765.509,559.065 767.843,560.065 770.5,560.5C 789.191,567.927 808.191,574.593 827.5,580.5C 829.509,582.065 831.843,583.065 834.5,583.5C 834.833,583.5 835.167,583.5 835.5,583.5C 837.102,585.074 839.102,585.741 841.5,585.5C 883.866,601.334 926.532,616.668 969.5,631.5C 971.509,633.065 973.843,634.065 976.5,634.5C 1008.36,646.441 1040.36,657.775 1072.5,668.5C 1074.1,670.074 1076.1,670.741 1078.5,670.5C 1089.19,675.285 1100.19,679.285 1111.5,682.5C 1113.1,684.074 1115.1,684.741 1117.5,684.5C 1198.63,714.55 1280.3,743.883 1362.5,772.5C 1364.51,774.065 1366.84,775.065 1369.5,775.5C 1378.99,778.3 1388.32,781.633 1397.5,785.5C 1392.36,786.488 1387.03,786.821 1381.5,786.5C 945.118,763.998 508.785,740.832 72.5,717C 145.5,667.333 218.5,617.667 291.5,568C 292.517,566.951 292.684,565.784 292,564.5C 287.132,553.023 281.965,541.69 276.5,530.5C 276.245,528.033 275.245,526.033 273.5,524.5C 272.915,521.152 271.582,518.152 269.5,515.5C 268.925,512.088 267.592,509.088 265.5,506.5C 265.065,503.843 264.065,501.509 262.5,499.5C 261.094,499.027 260.427,498.027 260.5,496.5C 259.012,491.533 257.012,486.866 254.5,482.5C 250.374,474.372 246.707,466.039 243.5,457.5C 243.008,455.181 242.008,453.181 240.5,451.5C 237.508,444.848 234.508,438.181 231.5,431.5C 231.065,428.843 230.065,426.509 228.5,424.5C 222.14,411.793 216.14,398.793 210.5,385.5C 209.925,382.088 208.592,379.088 206.5,376.5C 206.5,375.833 206.167,375.5 205.5,375.5C 204.895,370.968 203.228,366.968 200.5,363.5C 200.683,361.064 200.016,358.897 198.5,357C 199.094,356.536 199.761,356.369 200.5,356.5 Z"/></g>
<g><path style="opacity:1" fill="#000000" d="M 2686.5,366.5 C 2683.84,368.835 2682.5,371.835 2682.5,375.5C 2681.83,375.5 2681.5,375.833 2681.5,376.5C 2679.26,379.883 2677.59,383.55 2676.5,387.5C 2671.16,399.879 2665.82,412.212 2660.5,424.5C 2658.07,426.046 2656.74,428.379 2656.5,431.5C 2653.48,438.207 2650.48,444.874 2647.5,451.5C 2645.26,454.883 2643.59,458.55 2642.5,462.5C 2636.14,474.38 2630.8,486.713 2626.5,499.5C 2624.07,501.046 2622.74,503.379 2622.5,506.5C 2620.41,509.088 2619.07,512.088 2618.5,515.5C 2616.42,518.152 2615.08,521.152 2614.5,524.5C 2611.74,528.429 2609.74,532.762 2608.5,537.5C 2606.36,541.697 2604.36,546.031 2602.5,550.5C 2599.93,554.855 2597.93,559.522 2596.5,564.5C 2595.73,565.172 2595.07,566.005 2594.5,567C 2668.09,617.283 2741.76,667.283 2815.5,717C 2812.85,717.497 2810.19,717.664 2807.5,717.5C 2789.33,718.126 2771.33,719.126 2753.5,720.5C 2752.5,720.5 2751.5,720.5 2750.5,720.5C 2732.66,721.141 2714.99,722.141 2697.5,723.5C 2696.17,723.5 2694.83,723.5 2693.5,723.5C 2675.66,724.141 2657.99,725.141 2640.5,726.5C 2639.5,726.5 2638.5,726.5 2637.5,726.5C 2626.32,726.792 2615.32,727.459 2604.5,728.5C 2603.5,728.5 2602.5,728.5 2601.5,728.5C 2583.33,729.126 2565.33,730.126 2547.5,731.5C 2539.49,731.568 2531.49,731.901 2523.5,732.5C 2512.32,732.741 2501.32,733.407 2490.5,734.5C 2489.5,734.5 2488.5,734.5 2487.5,734.5C 2469.33,735.126 2451.33,736.126 2433.5,737.5C 2432.5,737.5 2431.5,737.5 2430.5,737.5C 2412.33,738.126 2394.33,739.126 2376.5,740.5C 2375.5,740.5 2374.5,740.5 2373.5,740.5C 2355.66,741.141 2337.99,742.141 2320.5,743.5C 2319.5,743.5 2318.5,743.5 2317.5,743.5C 2299.32,744.063 2281.32,745.063 2263.5,746.5C 2262.17,746.5 2260.83,746.5 2259.5,746.5C 2241.66,747.158 2223.99,748.158 2206.5,749.5C 2205.5,749.5 2204.5,749.5 2203.5,749.5C 2192.32,749.792 2181.32,750.459 2170.5,751.5C 2162.49,751.568 2154.49,751.901 2146.5,752.5C 2130.31,752.908 2114.31,753.908 2098.5,755.5C 2095.5,755.5 2092.5,755.5 2089.5,755.5C 2078.32,755.792 2067.32,756.459 2056.5,757.5C 2048.49,757.568 2040.49,757.901 2032.5,758.5C 2021.32,758.792 2010.32,759.459 1999.5,760.5C 1998.83,760.5 1998.17,760.5 1997.5,760.5C 1979.33,761.126 1961.33,762.126 1943.5,763.5C 1942.5,763.5 1941.5,763.5 1940.5,763.5C 1922.32,764.063 1904.32,765.063 1886.5,766.5C 1885.5,766.5 1884.5,766.5 1883.5,766.5C 1871.99,766.809 1860.66,767.476 1849.5,768.5C 1848.83,768.5 1848.17,768.5 1847.5,768.5C 1829.33,769.126 1811.33,770.126 1793.5,771.5C 1785.49,771.568 1777.49,771.901 1769.5,772.5C 1758.32,772.741 1747.32,773.407 1736.5,774.5C 1716.81,775.089 1697.14,776.089 1677.5,777.5C 1658.99,778.095 1640.66,779.095 1622.5,780.5C 1621.83,780.5 1621.17,780.5 1620.5,780.5C 1602.33,781.126 1584.33,782.126 1566.5,783.5C 1558.48,783.501 1550.48,783.834 1542.5,784.5C 1528.49,785.034 1514.49,785.7 1500.5,786.5C 1497.15,786.665 1493.82,786.498 1490.5,786C 1491.06,785.617 1491.39,785.117 1491.5,784.5C 1630.88,733.737 1770.54,683.737 1910.5,634.5C 1913.49,634.834 1915.82,633.834 1917.5,631.5C 2037.91,588.698 2158.24,545.698 2278.5,502.5C 2283.62,502.487 2287.95,500.82 2291.5,497.5C 2334.42,481.695 2377.42,466.362 2420.5,451.5C 2425.04,451.375 2429.04,450.042 2432.5,447.5C 2483.91,428.388 2535.57,409.722 2587.5,391.5C 2590.49,391.834 2592.82,390.834 2594.5,388.5C 2605.11,384.582 2615.78,380.915 2626.5,377.5C 2629.49,377.834 2631.82,376.834 2633.5,374.5C 2650.95,368.603 2668.29,362.437 2685.5,356C 2687.13,355.506 2688.8,355.34 2690.5,355.5C 2688.91,359.029 2687.57,362.695 2686.5,366.5 Z"/></g>
<g><path style="opacity:1" fill="#000000" d="M 1329.5,410.5 C 1330.82,410.33 1331.99,410.663 1333,411.5C 1350.09,446.02 1367.43,480.353 1385,514.5C 1391.38,530.361 1396.05,546.694 1399,563.5C 1401.92,584.587 1397.59,603.92 1386,621.5C 1366.22,642.194 1342.72,647.694 1315.5,638C 1301.65,632.193 1290.82,623.026 1283,610.5C 1278.32,601.766 1273.66,593.099 1269,584.5C 1256.23,591.644 1242.73,596.81 1228.5,600C 1200.8,601.736 1179.64,590.902 1165,567.5C 1148.06,533.527 1154.56,505.027 1184.5,482C 1194.84,475.163 1205.5,468.83 1216.5,463C 1254.5,445.998 1292.16,428.498 1329.5,410.5 Z"/></g>
<g><path style="opacity:1" fill="#000000" d="M 1555.5,410.5 C 1594.03,428.262 1632.69,445.762 1671.5,463C 1686.83,470.998 1701.16,480.498 1714.5,491.5C 1735.14,514.681 1737.97,540.015 1723,567.5C 1707.72,591.275 1685.89,602.108 1657.5,600C 1651.6,599.108 1645.93,597.442 1640.5,595C 1633.43,591.38 1626.26,587.88 1619,584.5C 1614.34,593.099 1609.68,601.766 1605,610.5C 1587.91,635.772 1564.08,645.939 1533.5,641C 1511.35,634.851 1497.18,620.684 1491,598.5C 1487.52,581.096 1487.86,563.762 1492,546.5C 1495.47,535.77 1499.13,525.103 1503,514.5C 1520.75,479.993 1538.25,445.327 1555.5,410.5 Z"/></g>
<g><path style="opacity:1" fill="#000000" d="M 1370.5,922.5 C 1370.5,922.833 1370.5,923.167 1370.5,923.5C 1365.92,924.955 1361.25,926.122 1356.5,927C 1354.24,927.876 1352.24,929.043 1350.5,930.5C 1346.17,931.551 1341.84,932.718 1337.5,934C 1336.94,934.383 1336.61,934.883 1336.5,935.5C 1328.72,937.266 1321.39,939.933 1314.5,943.5C 1310.42,945.358 1306.08,946.525 1301.5,947C 1300.43,947.852 1299.43,948.685 1298.5,949.5C 1294.78,950.017 1291.11,950.85 1287.5,952C 1286.94,952.383 1286.61,952.883 1286.5,953.5C 1285.83,953.5 1285.17,953.5 1284.5,953.5C 1281.84,953.935 1279.51,954.935 1277.5,956.5C 1276.13,956.343 1274.79,956.51 1273.5,957C 1271.24,957.876 1269.24,959.043 1267.5,960.5C 1265.3,960.12 1263.64,960.787 1262.5,962.5C 1258.21,962.476 1254.55,963.81 1251.5,966.5C 1249.1,966.259 1247.1,966.926 1245.5,968.5C 1242.28,968.345 1239.62,969.345 1237.5,971.5C 1233.04,972.153 1228.7,973.32 1224.5,975C 1222.12,975.716 1220.12,976.883 1218.5,978.5C 1209.65,980.128 1201.31,983.128 1193.5,987.5C 1188.43,988.285 1183.76,989.951 1179.5,992.5C 1175.53,992.486 1172.19,993.819 1169.5,996.5C 1169.17,996.5 1168.83,996.5 1168.5,996.5C 1163.59,997.559 1158.92,999.226 1154.5,1001.5C 1153.07,1002.54 1151.4,1003.2 1149.5,1003.5C 1145.17,1004.55 1140.84,1005.72 1136.5,1007C 1135.94,1007.38 1135.61,1007.88 1135.5,1008.5C 1132.89,1008.4 1130.56,1009.07 1128.5,1010.5C 1125.73,1010.76 1123.39,1011.76 1121.5,1013.5C 1120.13,1013.34 1118.79,1013.51 1117.5,1014C 1115.24,1014.88 1113.24,1016.04 1111.5,1017.5C 1108.28,1017.35 1105.62,1018.35 1103.5,1020.5C 1100.01,1020.45 1097.01,1021.45 1094.5,1023.5C 1089.43,1024.28 1084.76,1025.95 1080.5,1028.5C 1079.13,1028.34 1077.79,1028.51 1076.5,1029C 1072.7,1030.69 1069.03,1032.52 1065.5,1034.5C 1063.1,1034.26 1061.1,1034.93 1059.5,1036.5C 1055.33,1036.67 1051.66,1038 1048.5,1040.5C 1046.3,1040.6 1044.3,1041.27 1042.5,1042.5C 1037.32,1043.11 1032.66,1044.77 1028.5,1047.5C 1022.77,1048.59 1017.43,1050.59 1012.5,1053.5C 1008.47,1054.02 1004.8,1055.36 1001.5,1057.5C 991.741,1059.86 982.408,1063.2 973.5,1067.5C 969.38,1067.84 965.714,1069.18 962.5,1071.5C 959.603,1072.13 956.936,1073.13 954.5,1074.5C 950.642,1074.77 947.309,1076.1 944.5,1078.5C 944.167,1078.5 943.833,1078.5 943.5,1078.5C 940.284,1078.35 937.617,1079.35 935.5,1081.5C 932.008,1081.45 929.008,1082.45 926.5,1084.5C 921.841,1085.33 917.507,1087 913.5,1089.5C 912.391,1089.56 911.391,1089.89 910.5,1090.5C 906.467,1091.02 902.8,1092.36 899.5,1094.5C 897.199,1095.06 894.866,1095.56 892.5,1096C 891.944,1096.38 891.611,1096.88 891.5,1097.5C 889.102,1097.26 887.102,1097.93 885.5,1099.5C 881.426,1100.64 877.426,1101.97 873.5,1103.5C 868.777,1104.37 864.444,1106.04 860.5,1108.5C 858.716,1108.89 857.05,1109.56 855.5,1110.5C 850.521,1110.89 846.188,1112.56 842.5,1115.5C 840.421,1115.97 838.421,1116.64 836.5,1117.5C 829.715,1120.22 822.715,1122.38 815.5,1124C 814.944,1124.38 814.611,1124.88 814.5,1125.5C 810.668,1126.44 807.001,1127.78 803.5,1129.5C 800.284,1129.35 797.617,1130.35 795.5,1132.5C 793.102,1132.26 791.102,1132.93 789.5,1134.5C 784.919,1135.58 780.586,1137.25 776.5,1139.5C 768.693,1141.21 761.36,1143.88 754.5,1147.5C 751.008,1147.45 748.008,1148.45 745.5,1150.5C 741.666,1151.32 737.999,1152.66 734.5,1154.5C 727.444,1156.35 720.444,1158.52 713.5,1161C 710.367,1161.86 707.7,1163.36 705.5,1165.5C 705.167,1165.5 704.833,1165.5 704.5,1165.5C 701.284,1165.35 698.617,1166.35 696.5,1168.5C 693.351,1168.42 690.684,1169.42 688.5,1171.5C 685.848,1171.41 683.515,1172.08 681.5,1173.5C 678.797,1174.96 675.797,1175.8 672.5,1176C 671.429,1176.85 670.429,1177.69 669.5,1178.5C 664.106,1179.69 658.773,1181.19 653.5,1183C 652.944,1183.38 652.611,1183.88 652.5,1184.5C 649.11,1185.02 645.777,1185.86 642.5,1187C 641.944,1187.38 641.611,1187.88 641.5,1188.5C 638.279,1189.51 634.946,1190.34 631.5,1191C 630.944,1191.38 630.611,1191.88 630.5,1192.5C 625.548,1192.84 621.215,1194.51 617.5,1197.5C 617.167,1197.5 616.833,1197.5 616.5,1197.5C 613.284,1197.35 610.617,1198.35 608.5,1200.5C 605.279,1201.51 601.946,1202.34 598.5,1203C 597.944,1203.38 597.611,1203.88 597.5,1204.5C 594.284,1204.35 591.617,1205.35 589.5,1207.5C 587.142,1207.25 585.142,1207.92 583.5,1209.5C 580.284,1209.35 577.617,1210.35 575.5,1212.5C 572.008,1212.45 569.008,1213.45 566.5,1215.5C 562.873,1216.32 559.54,1217.65 556.5,1219.5C 551.106,1220.69 545.773,1222.19 540.5,1224C 539.944,1224.38 539.611,1224.88 539.5,1225.5C 528.052,1228.56 517.052,1232.56 506.5,1237.5C 500.653,1239.58 494.653,1241.41 488.5,1243C 487.944,1243.38 487.611,1243.88 487.5,1244.5C 484.603,1245.13 481.936,1246.13 479.5,1247.5C 477.102,1247.26 475.102,1247.93 473.5,1249.5C 470.668,1250.1 467.835,1250.77 465,1251.5C 463.97,1251.84 463.47,1252.5 463.5,1253.5C 460.084,1253.53 457.084,1254.53 454.5,1256.5C 452.199,1257.06 449.866,1257.56 447.5,1258C 446.944,1258.38 446.611,1258.88 446.5,1259.5C 443.008,1259.45 440.008,1260.45 437.5,1262.5C 431.922,1263.91 426.588,1265.91 421.5,1268.5C 416.169,1268.65 411.502,1270.32 407.5,1273.5C 403.825,1274.73 400.158,1276.06 396.5,1277.5C 391.539,1277.82 387.206,1279.49 383.5,1282.5C 379.266,1283.72 374.933,1284.89 370.5,1286C 369.944,1286.38 369.611,1286.88 369.5,1287.5C 367.142,1287.25 365.142,1287.92 363.5,1289.5C 358.539,1289.82 354.206,1291.49 350.5,1294.5C 342.567,1295.81 335.234,1298.47 328.5,1302.5C 325.145,1302.69 322.145,1303.69 319.5,1305.5C 318.127,1305.34 316.793,1305.51 315.5,1306C 313.242,1306.88 311.242,1308.04 309.5,1309.5C 306.008,1309.45 303.008,1310.45 300.5,1312.5C 297.892,1312.4 295.558,1313.07 293.5,1314.5C 290.728,1314.76 288.395,1315.76 286.5,1317.5C 278.19,1319.76 270.19,1322.76 262.5,1326.5C 256.436,1328.03 250.436,1329.86 244.5,1332C 243.944,1332.38 243.611,1332.88 243.5,1333.5C 236.385,1334.18 230.052,1336.51 224.5,1340.5C 218.175,1341.15 212.509,1343.15 207.5,1346.5C 204.008,1346.45 201.008,1347.45 198.5,1349.5C 190.769,1351.35 183.269,1354.02 176,1357.5C 174.97,1357.16 174.47,1356.5 174.5,1355.5C 175.11,1354.61 175.443,1353.61 175.5,1352.5C 178.956,1348.51 181.29,1343.84 182.5,1338.5C 184.065,1336.49 185.065,1334.16 185.5,1331.5C 186.167,1329.83 186.833,1328.17 187.5,1326.5C 189.517,1323.1 191.184,1319.43 192.5,1315.5C 193.999,1311.63 195.666,1307.96 197.5,1304.5C 200.487,1301.52 202.154,1297.85 202.5,1293.5C 202.5,1293.17 202.5,1292.83 202.5,1292.5C 204.371,1288.43 206.538,1284.43 209,1280.5C 209.49,1279.21 209.657,1277.87 209.5,1276.5C 213.539,1269.43 217.372,1262.09 221,1254.5C 221.49,1253.21 221.657,1251.87 221.5,1250.5C 222.801,1247.9 224.134,1245.23 225.5,1242.5C 227.074,1240.9 227.741,1238.9 227.5,1236.5C 228.441,1234.95 229.107,1233.28 229.5,1231.5C 233.293,1226.5 235.96,1220.83 237.5,1214.5C 239.4,1211.48 240.733,1208.15 241.5,1204.5C 242.167,1203.17 242.833,1201.83 243.5,1200.5C 245.975,1199.31 246.975,1197.31 246.5,1194.5C 248.711,1188.29 251.378,1182.29 254.5,1176.5C 256.28,1175.01 256.946,1173.01 256.5,1170.5C 256.833,1170.5 257.167,1170.5 257.5,1170.5C 260.427,1163.64 263.094,1156.64 265.5,1149.5C 267.3,1148.11 267.634,1146.44 266.5,1144.5C 259.767,1139.81 253.1,1135.14 246.5,1130.5C 244.256,1126.59 240.923,1124.25 236.5,1123.5C 186.628,1090.93 137.295,1057.93 88.5,1024.5C 85.6825,1022.26 82.6825,1020.26 79.5,1018.5C 75.205,1016.19 71.205,1013.53 67.5,1010.5C 63.6719,1007.08 59.3386,1004.42 54.5,1002.5C 52.3428,1000.59 50.0094,998.921 47.5,997.5C 49.223,996.2 51.3897,995.533 54,995.5C 63.1504,994.707 72.3171,994.374 81.5,994.5C 97.685,994.026 113.685,993.026 129.5,991.5C 143.811,990.468 158.145,989.801 172.5,989.5C 189.038,989.389 205.372,988.389 221.5,986.5C 223.5,986.5 225.5,986.5 227.5,986.5C 241.696,986.129 255.696,985.129 269.5,983.5C 271.833,983.5 274.167,983.5 276.5,983.5C 285.338,983.123 294.005,982.457 302.5,981.5C 313.712,981.826 324.712,981.159 335.5,979.5C 340.695,979.821 345.695,979.487 350.5,978.5C 351.167,978.5 351.833,978.5 352.5,978.5C 368.483,977.55 384.483,976.884 400.5,976.5C 407.73,976.741 414.73,976.075 421.5,974.5C 424.833,974.5 428.167,974.5 431.5,974.5C 447.723,974.653 463.723,973.653 479.5,971.5C 480.167,971.5 480.833,971.5 481.5,971.5C 515.377,970.463 549.044,968.463 582.5,965.5C 590.146,964.793 597.813,964.46 605.5,964.5C 625.026,963.707 644.359,962.374 663.5,960.5C 664.5,960.5 665.5,960.5 666.5,960.5C 669.833,960.5 673.167,960.5 676.5,960.5C 686.388,960.858 696.055,960.192 705.5,958.5C 708.167,958.5 710.833,958.5 713.5,958.5C 720.711,958.542 727.711,957.875 734.5,956.5C 739.833,956.5 745.167,956.5 750.5,956.5C 759.683,956.282 768.683,955.615 777.5,954.5C 779.833,954.5 782.167,954.5 784.5,954.5C 797.049,954.356 809.383,953.356 821.5,951.5C 843.049,951.817 864.382,950.817 885.5,948.5C 912.999,947.071 940.332,945.404 967.5,943.5C 968.167,943.5 968.833,943.5 969.5,943.5C 979.388,943.858 989.055,943.192 998.5,941.5C 1002.83,941.5 1007.17,941.5 1011.5,941.5C 1025.73,941.701 1039.73,940.701 1053.5,938.5C 1056.17,938.5 1058.83,938.5 1061.5,938.5C 1071.36,938.443 1081.03,937.776 1090.5,936.5C 1091.17,936.5 1091.83,936.5 1092.5,936.5C 1117.7,936.028 1142.7,934.695 1167.5,932.5C 1176.66,932.02 1185.66,931.353 1194.5,930.5C 1194.83,930.5 1195.17,930.5 1195.5,930.5C 1213.68,930.084 1231.68,929.084 1249.5,927.5C 1251.17,927.5 1252.83,927.5 1254.5,927.5C 1268.74,927.809 1282.74,926.809 1296.5,924.5C 1300.5,924.5 1304.5,924.5 1308.5,924.5C 1319.38,924.81 1330.05,924.143 1340.5,922.5C 1350.69,922.24 1360.69,922.24 1370.5,922.5 Z"/></g>
<g><path style="opacity:1" fill="#000000" d="M 1535.5,922.5 C 1542.5,922.5 1549.5,922.5 1556.5,922.5C 1572.3,924.258 1588.3,925.258 1604.5,925.5C 1612.44,926.437 1620.44,926.77 1628.5,926.5C 1636.98,927.645 1645.65,928.311 1654.5,928.5C 1656.5,928.5 1658.5,928.5 1660.5,928.5C 1674.29,930.256 1688.29,931.256 1702.5,931.5C 1715.5,932.125 1728.5,932.792 1741.5,933.5C 1751.99,934.56 1762.66,935.226 1773.5,935.5C 1774.5,935.5 1775.5,935.5 1776.5,935.5C 1787.66,936.573 1798.99,937.239 1810.5,937.5C 1811.17,937.5 1811.83,937.5 1812.5,937.5C 1828.26,939.93 1844.26,940.93 1860.5,940.5C 1873.26,940.377 1885.93,941.044 1898.5,942.5C 1911.97,944.021 1925.64,944.687 1939.5,944.5C 1940.17,944.5 1940.83,944.5 1941.5,944.5C 1957.29,946.446 1973.29,947.446 1989.5,947.5C 1996.75,948.464 2004.08,948.797 2011.5,948.5C 2020.65,949.589 2029.99,950.256 2039.5,950.5C 2054.98,952.059 2070.65,953.059 2086.5,953.5C 2093.79,954.392 2101.12,954.726 2108.5,954.5C 2109.17,954.5 2109.83,954.5 2110.5,954.5C 2123.63,956.094 2136.97,956.76 2150.5,956.5C 2157.78,957.43 2165.11,957.764 2172.5,957.5C 2179.61,959.023 2186.94,959.69 2194.5,959.5C 2195.17,959.5 2195.83,959.5 2196.5,959.5C 2198.29,960.309 2200.29,960.809 2202.5,961C 2211.16,961.5 2219.83,961.666 2228.5,961.5C 2236.8,962.332 2245.14,962.665 2253.5,962.5C 2253.83,962.5 2254.17,962.5 2254.5,962.5C 2263.27,964.259 2272.27,964.925 2281.5,964.5C 2285.17,964.5 2288.83,964.5 2292.5,964.5C 2294.17,964.5 2295.83,964.5 2297.5,964.5C 2310.31,966.08 2323.31,967.08 2336.5,967.5C 2348.64,968.984 2360.97,969.65 2373.5,969.5C 2380.65,970.492 2387.98,970.825 2395.5,970.5C 2399.8,971.2 2404.13,971.533 2408.5,971.5C 2419.97,972.929 2431.64,973.596 2443.5,973.5C 2444.17,973.5 2444.83,973.5 2445.5,973.5C 2460.98,975.033 2476.65,976.033 2492.5,976.5C 2519.17,977.865 2545.83,979.198 2572.5,980.5C 2596.38,982.919 2620.38,984.253 2644.5,984.5C 2670.34,986.323 2696.34,987.99 2722.5,989.5C 2733.97,990.991 2745.63,991.658 2757.5,991.5C 2757.83,991.5 2758.17,991.5 2758.5,991.5C 2760.63,992.314 2762.96,992.814 2765.5,993C 2773.83,993.5 2782.16,993.666 2790.5,993.5C 2791.5,993.5 2792.5,993.5 2793.5,993.5C 2804.63,994.964 2815.97,995.631 2827.5,995.5C 2831.58,995.344 2835.58,995.844 2839.5,997C 2835.72,998.95 2832.39,1001.45 2829.5,1004.5C 2825.95,1005.72 2822.95,1007.72 2820.5,1010.5C 2819.51,1010.33 2818.84,1010.66 2818.5,1011.5C 2815.88,1012.79 2813.55,1014.45 2811.5,1016.5C 2808.56,1017.46 2806.23,1019.12 2804.5,1021.5C 2801.8,1021.84 2799.8,1023.18 2798.5,1025.5C 2795.3,1026.38 2792.63,1028.05 2790.5,1030.5C 2788.6,1030.74 2787.26,1031.74 2786.5,1033.5C 2782.95,1034.72 2779.95,1036.72 2777.5,1039.5C 2774.51,1040.72 2771.84,1042.39 2769.5,1044.5C 2767.92,1045.14 2766.59,1046.14 2765.5,1047.5C 2760.33,1049.34 2756,1052.34 2752.5,1056.5C 2749.3,1057.38 2746.63,1059.05 2744.5,1061.5C 2740.15,1063.67 2736.15,1066.34 2732.5,1069.5C 2728.61,1071.06 2725.27,1073.4 2722.5,1076.5C 2719.3,1077.38 2716.63,1079.05 2714.5,1081.5C 2712.15,1082.34 2710.15,1083.67 2708.5,1085.5C 2704.98,1086.76 2701.98,1088.76 2699.5,1091.5C 2696.63,1092.43 2694.3,1094.1 2692.5,1096.5C 2688.15,1098.67 2684.15,1101.34 2680.5,1104.5C 2677.22,1106.12 2674.22,1108.12 2671.5,1110.5C 2665.61,1113.39 2660.28,1117.06 2655.5,1121.5C 2652.8,1121.84 2650.8,1123.18 2649.5,1125.5C 2645.95,1126.72 2642.95,1128.72 2640.5,1131.5C 2637.8,1131.84 2635.8,1133.18 2634.5,1135.5C 2630.95,1136.72 2627.95,1138.72 2625.5,1141.5C 2619.24,1142.66 2618.24,1145.33 2622.5,1149.5C 2623.3,1151.04 2623.63,1152.71 2623.5,1154.5C 2623.5,1158.16 2624.84,1161.16 2627.5,1163.5C 2628.11,1166.4 2629.44,1168.73 2631.5,1170.5C 2634.76,1179.97 2638.76,1188.97 2643.5,1197.5C 2643.5,1197.83 2643.5,1198.17 2643.5,1198.5C 2644.28,1201.54 2645.61,1204.21 2647.5,1206.5C 2647.5,1206.83 2647.5,1207.17 2647.5,1207.5C 2647.93,1210.16 2648.93,1212.49 2650.5,1214.5C 2651.31,1218.94 2652.98,1222.94 2655.5,1226.5C 2657.15,1229.76 2658.82,1233.09 2660.5,1236.5C 2660.17,1239.49 2661.17,1241.82 2663.5,1243.5C 2664.07,1246.91 2665.41,1249.91 2667.5,1252.5C 2668.54,1255.39 2669.87,1258.06 2671.5,1260.5C 2671.5,1264.16 2672.84,1267.16 2675.5,1269.5C 2675.5,1270.17 2675.5,1270.83 2675.5,1271.5C 2677.88,1275.47 2679.38,1279.8 2680,1284.5C 2680.85,1285.57 2681.69,1286.57 2682.5,1287.5C 2685.39,1292.69 2687.22,1298.35 2688,1304.5C 2689.28,1306.75 2690.78,1308.75 2692.5,1310.5C 2695.09,1317.3 2698.42,1323.64 2702.5,1329.5C 2702.5,1330.17 2702.5,1330.83 2702.5,1331.5C 2702.93,1334.16 2703.93,1336.49 2705.5,1338.5C 2706.71,1343.84 2709.04,1348.51 2712.5,1352.5C 2713.04,1354.12 2713.37,1355.78 2713.5,1357.5C 2702.18,1353.84 2690.84,1350.17 2679.5,1346.5C 2675.79,1344.96 2672.13,1343.29 2668.5,1341.5C 2664.3,1338.75 2659.64,1337.08 2654.5,1336.5C 2645.06,1332.8 2635.39,1329.46 2625.5,1326.5C 2624.39,1326.44 2623.39,1326.11 2622.5,1325.5C 2619.48,1323.6 2616.15,1322.27 2612.5,1321.5C 2601.14,1316.74 2589.47,1312.74 2577.5,1309.5C 2574.95,1307.42 2571.95,1306.08 2568.5,1305.5C 2550.41,1298.77 2532.41,1292.11 2514.5,1285.5C 2510.18,1283.06 2505.52,1281.39 2500.5,1280.5C 2490.94,1276.89 2481.27,1273.55 2471.5,1270.5C 2467.2,1268.07 2462.53,1266.4 2457.5,1265.5C 2449.05,1261.88 2440.38,1258.54 2431.5,1255.5C 2429.49,1253.93 2427.16,1252.93 2424.5,1252.5C 2424.17,1252.5 2423.83,1252.5 2423.5,1252.5C 2420.04,1249.96 2416.04,1248.62 2411.5,1248.5C 2407.02,1246.54 2402.36,1244.87 2397.5,1243.5C 2394.46,1241.65 2391.13,1240.32 2387.5,1239.5C 2380.04,1236.75 2372.7,1234.08 2365.5,1231.5C 2362.2,1229.36 2358.53,1228.02 2354.5,1227.5C 2349.83,1225.83 2345.17,1224.17 2340.5,1222.5C 2337.91,1219.67 2334.58,1218.34 2330.5,1218.5C 2299.48,1207.66 2268.48,1196.66 2237.5,1185.5C 2237.39,1184.88 2237.06,1184.38 2236.5,1184C 2232.55,1182.52 2228.55,1181.35 2224.5,1180.5C 2222.97,1178.75 2220.97,1177.75 2218.5,1177.5C 2215.14,1177.31 2212.14,1176.31 2209.5,1174.5C 2207.9,1172.93 2205.9,1172.26 2203.5,1172.5C 2200.27,1171.19 2196.94,1170.19 2193.5,1169.5C 2187.08,1166.98 2180.75,1164.32 2174.5,1161.5C 2170.77,1159.59 2166.77,1158.26 2162.5,1157.5C 2159.57,1156.3 2156.57,1155.3 2153.5,1154.5C 2150.75,1153.05 2147.75,1152.05 2144.5,1151.5C 2139.2,1148.69 2133.53,1146.69 2127.5,1145.5C 2125.61,1143.76 2123.27,1142.76 2120.5,1142.5C 2116.88,1141.01 2113.22,1139.68 2109.5,1138.5C 2107.06,1137.13 2104.4,1136.13 2101.5,1135.5C 2095.73,1133.78 2090.06,1131.78 2084.5,1129.5C 2081.69,1127.1 2078.36,1125.77 2074.5,1125.5C 2063.63,1121.57 2052.63,1117.9 2041.5,1114.5C 2040.94,1113.21 2039.94,1112.38 2038.5,1112C 2034.62,1111.28 2030.95,1110.12 2027.5,1108.5C 2025.42,1108.03 2023.42,1107.36 2021.5,1106.5C 2021.39,1105.88 2021.06,1105.38 2020.5,1105C 2016.55,1103.52 2012.55,1102.35 2008.5,1101.5C 2007.07,1100.46 2005.4,1099.8 2003.5,1099.5C 2001.9,1099.77 2000.57,1099.43 1999.5,1098.5C 1997.06,1097.13 1994.4,1096.13 1991.5,1095.5C 1975.82,1089.61 1960.16,1083.94 1944.5,1078.5C 1941.06,1076.8 1937.39,1075.46 1933.5,1074.5C 1932.07,1073.46 1930.4,1072.8 1928.5,1072.5C 1925.75,1071.05 1922.75,1070.05 1919.5,1069.5C 1913.45,1067.32 1907.45,1064.82 1901.5,1062C 1897.3,1060.32 1892.96,1059.15 1888.5,1058.5C 1886.97,1056.75 1884.97,1055.75 1882.5,1055.5C 1879.24,1054.34 1875.91,1053.34 1872.5,1052.5C 1870.15,1050.9 1867.49,1049.9 1864.5,1049.5C 1856.35,1046.27 1848.02,1043.27 1839.5,1040.5C 1837.15,1038.9 1834.49,1037.9 1831.5,1037.5C 1827.63,1035.86 1823.63,1034.53 1819.5,1033.5C 1817.61,1031.76 1815.27,1030.76 1812.5,1030.5C 1809.32,1028.99 1805.99,1027.66 1802.5,1026.5C 1799.58,1025.3 1796.58,1024.3 1793.5,1023.5C 1791.38,1021.35 1788.72,1020.35 1785.5,1020.5C 1757.72,1010.78 1730.05,1000.78 1702.5,990.5C 1697.2,987.732 1691.53,985.732 1685.5,984.5C 1683.97,982.755 1681.97,981.755 1679.5,981.5C 1675.18,979.06 1670.52,977.393 1665.5,976.5C 1663.9,974.926 1661.9,974.259 1659.5,974.5C 1657.88,973.962 1656.22,973.629 1654.5,973.5C 1650.66,970.88 1646.32,969.214 1641.5,968.5C 1639.42,967.01 1637.09,966.01 1634.5,965.5C 1630.41,963.721 1626.07,962.388 1621.5,961.5C 1596.73,951.966 1571.73,942.632 1546.5,933.5C 1544.06,932.129 1541.4,931.129 1538.5,930.5C 1536.3,930.396 1534.3,929.73 1532.5,928.5C 1530.5,927.5 1528.5,926.5 1526.5,925.5C 1525.19,924.768 1523.86,923.934 1522.5,923C 1526.82,922.501 1531.15,922.334 1535.5,922.5 Z"/></g>
<g><path style="opacity:1" fill="#000000" d="M 1330.5,1217.5 C 1329.5,1217.83 1328.83,1218.5 1328.5,1219.5C 1326.6,1219.74 1325.26,1220.74 1324.5,1222.5C 1317.19,1227.82 1310.19,1233.48 1303.5,1239.5C 1300.47,1241.02 1297.8,1243.02 1295.5,1245.5C 1291.85,1247.82 1288.52,1250.48 1285.5,1253.5C 1284.83,1253.5 1284.5,1253.83 1284.5,1254.5C 1280.43,1256.21 1277.09,1258.87 1274.5,1262.5C 1268.13,1266.69 1262.13,1271.35 1256.5,1276.5C 1252.43,1278.21 1249.09,1280.87 1246.5,1284.5C 1242.79,1286.69 1239.46,1289.36 1236.5,1292.5C 1233.47,1294.02 1230.8,1296.02 1228.5,1298.5C 1216.59,1306.75 1205.25,1315.75 1194.5,1325.5C 1192.6,1325.74 1191.26,1326.74 1190.5,1328.5C 1185.25,1331.41 1180.59,1335.08 1176.5,1339.5C 1172.87,1341.79 1169.54,1344.46 1166.5,1347.5C 1162.43,1349.21 1159.09,1351.87 1156.5,1355.5C 1154.25,1356.08 1152.58,1357.41 1151.5,1359.5C 1147.43,1361.21 1144.09,1363.87 1141.5,1367.5C 1137.72,1369.71 1134.39,1372.37 1131.5,1375.5C 1128.47,1377.02 1125.8,1379.02 1123.5,1381.5C 1121.4,1382.41 1119.4,1383.58 1117.5,1385C 1116.75,1385.67 1116.41,1386.5 1116.5,1387.5C 1114.6,1387.74 1113.26,1388.74 1112.5,1390.5C 1108.79,1392.69 1105.46,1395.36 1102.5,1398.5C 1100.6,1398.74 1099.26,1399.74 1098.5,1401.5C 1094.36,1403.23 1091.02,1405.89 1088.5,1409.5C 1084.36,1411.23 1081.02,1413.89 1078.5,1417.5C 1077.42,1417.54 1076.42,1417.87 1075.5,1418.5C 1073.47,1420.51 1071.47,1422.51 1069.5,1424.5C 1064.59,1427.07 1060.26,1430.41 1056.5,1434.5C 1054.6,1434.74 1053.26,1435.74 1052.5,1437.5C 1046.2,1441.47 1040.53,1446.14 1035.5,1451.5C 1027.59,1456.41 1020.26,1462.08 1013.5,1468.5C 1009.79,1470.69 1006.46,1473.36 1003.5,1476.5C 1001.25,1477.08 999.585,1478.41 998.5,1480.5C 988.278,1487.45 978.612,1495.11 969.5,1503.5C 967.596,1503.74 966.262,1504.74 965.5,1506.5C 963.251,1507.08 961.585,1508.41 960.5,1510.5C 956.544,1512.49 952.878,1514.99 949.5,1518C 947.576,1519.75 945.909,1521.58 944.5,1523.5C 943.167,1524.5 941.833,1525.5 940.5,1526.5C 936.357,1528.23 933.024,1530.89 930.5,1534.5C 925.732,1537.42 921.066,1540.59 916.5,1544C 915.748,1544.67 915.414,1545.5 915.5,1546.5C 911.608,1548.06 908.275,1550.4 905.5,1553.5C 904.833,1554.17 904.167,1554.83 903.5,1555.5C 900.208,1557.46 897.208,1559.79 894.5,1562.5C 893.833,1562.5 893.5,1562.83 893.5,1563.5C 888.591,1566.07 884.258,1569.41 880.5,1573.5C 879.833,1573.5 879.5,1573.83 879.5,1574.5C 875.793,1576.69 872.46,1579.36 869.5,1582.5C 864.254,1585.41 859.587,1589.08 855.5,1593.5C 846.724,1598.88 838.724,1605.22 831.5,1612.5C 829.251,1613.08 827.585,1614.41 826.5,1616.5C 821.211,1619.47 816.544,1623.13 812.5,1627.5C 810.745,1628.07 809.078,1628.91 807.5,1630C 799.762,1636.52 792.095,1643.02 784.5,1649.5C 780.949,1651.11 777.949,1653.44 775.5,1656.5C 773.251,1657.08 771.585,1658.41 770.5,1660.5C 765.462,1663.69 760.795,1667.35 756.5,1671.5C 753.911,1672.42 751.911,1674.09 750.5,1676.5C 748.596,1676.74 747.262,1677.74 746.5,1679.5C 740.917,1682.75 735.917,1686.75 731.5,1691.5C 728.911,1692.42 726.911,1694.09 725.5,1696.5C 722.467,1698.02 719.8,1700.02 717.5,1702.5C 714.865,1703.47 712.865,1705.14 711.5,1707.5C 708.467,1709.02 705.8,1711.02 703.5,1713.5C 700.865,1714.47 698.865,1716.14 697.5,1718.5C 696.833,1718.5 696.5,1718.83 696.5,1719.5C 690.129,1723.69 684.129,1728.35 678.5,1733.5C 674.251,1735.09 670.918,1737.75 668.5,1741.5C 664.723,1743.71 661.39,1746.37 658.5,1749.5C 655.262,1750.74 652.596,1752.74 650.5,1755.5C 643.025,1759.89 636.358,1765.23 630.5,1771.5C 628.205,1772.14 626.539,1773.47 625.5,1775.5C 620.591,1778.07 616.258,1781.41 612.5,1785.5C 597.586,1796.08 583.253,1807.41 569.5,1819.5C 565.873,1821.79 562.539,1824.46 559.5,1827.5C 555.428,1829.21 552.095,1831.87 549.5,1835.5C 547.596,1835.74 546.262,1836.74 545.5,1838.5C 540.912,1840.43 537.245,1843.43 534.5,1847.5C 530.226,1849.12 526.893,1851.79 524.5,1855.5C 521.262,1856.74 518.596,1858.74 516.5,1861.5C 508.557,1866.12 501.557,1871.79 495.5,1878.5C 488.974,1881.69 483.308,1886.02 478.5,1891.5C 476.596,1891.74 475.262,1892.74 474.5,1894.5C 469.254,1897.41 464.587,1901.08 460.5,1905.5C 459.833,1905.5 459.5,1905.83 459.5,1906.5C 455.793,1908.69 452.46,1911.36 449.5,1914.5C 440.919,1920.08 432.919,1926.41 425.5,1933.5C 422.604,1934.4 420.271,1936.06 418.5,1938.5C 416.691,1926.7 415.357,1914.7 414.5,1902.5C 414.5,1900.17 414.5,1897.83 414.5,1895.5C 414.5,1888.5 414.5,1881.5 414.5,1874.5C 414.749,1864.62 414.083,1854.95 412.5,1845.5C 412.5,1843.17 412.5,1840.83 412.5,1838.5C 412.355,1822.81 411.689,1807.14 410.5,1791.5C 409.968,1767.49 409.135,1743.49 408,1719.5C 407.79,1717.94 407.29,1716.61 406.5,1715.5C 406.167,1715.5 405.833,1715.5 405.5,1715.5C 402.916,1713.53 399.916,1712.53 396.5,1712.5C 394.901,1712.77 393.568,1712.43 392.5,1711.5C 390.485,1710.08 388.152,1709.41 385.5,1709.5C 370.45,1705.32 355.45,1700.99 340.5,1696.5C 336.097,1694.59 331.43,1693.26 326.5,1692.5C 315.815,1689.5 305.148,1686.5 294.5,1683.5C 292.898,1681.93 290.898,1681.26 288.5,1681.5C 286.167,1680.83 283.833,1680.17 281.5,1679.5C 275.934,1677.77 270.267,1676.1 264.5,1674.5C 262.485,1673.08 260.152,1672.41 257.5,1672.5C 255.898,1670.93 253.898,1670.26 251.5,1670.5C 237.325,1667.08 223.325,1663.08 209.5,1658.5C 206.495,1656.72 203.162,1655.72 199.5,1655.5C 188.915,1652.25 178.248,1649.25 167.5,1646.5C 164.916,1644.53 161.916,1643.53 158.5,1643.5C 156.901,1643.77 155.568,1643.43 154.5,1642.5C 152.898,1640.93 150.898,1640.26 148.5,1640.5C 145.572,1640.43 142.905,1639.77 140.5,1638.5C 138.898,1636.93 136.898,1636.26 134.5,1636.5C 134.389,1635.88 134.056,1635.38 133.5,1635C 134.737,1634.77 135.737,1634.27 136.5,1633.5C 139.76,1632.21 143.094,1630.88 146.5,1629.5C 153.532,1627.94 160.198,1625.6 166.5,1622.5C 169.716,1622.65 172.383,1621.65 174.5,1619.5C 177.152,1619.59 179.485,1618.92 181.5,1617.5C 184.578,1617.38 187.245,1616.38 189.5,1614.5C 195.353,1612.74 201.02,1610.74 206.5,1608.5C 210.532,1607.92 214.199,1606.58 217.5,1604.5C 221.915,1604.14 225.915,1602.81 229.5,1600.5C 231.102,1598.93 233.102,1598.26 235.5,1598.5C 239.767,1597.74 243.767,1596.41 247.5,1594.5C 253.699,1591.08 260.366,1588.74 267.5,1587.5C 273.112,1586.08 278.445,1584.08 283.5,1581.5C 284.568,1580.57 285.901,1580.23 287.5,1580.5C 292.517,1579.61 297.183,1577.94 301.5,1575.5C 302.833,1574.83 304.167,1574.17 305.5,1573.5C 308.746,1572.95 311.746,1571.95 314.5,1570.5C 316.05,1569.56 317.716,1568.89 319.5,1568.5C 322.746,1567.95 325.746,1566.95 328.5,1565.5C 332.418,1564.35 336.418,1563.18 340.5,1562C 341.571,1561.15 342.571,1560.31 343.5,1559.5C 345.5,1559.17 347.5,1558.83 349.5,1558.5C 355.598,1556.88 361.598,1555.05 367.5,1553C 368.056,1552.62 368.389,1552.12 368.5,1551.5C 372.942,1549.46 377.609,1547.8 382.5,1546.5C 387.042,1546.59 391.042,1545.25 394.5,1542.5C 397.649,1542.58 400.316,1541.58 402.5,1539.5C 405.792,1538.5 409.125,1537.5 412.5,1536.5C 416.149,1535.73 419.482,1534.4 422.5,1532.5C 424.374,1531.71 426.374,1531.05 428.5,1530.5C 433.069,1529.98 437.069,1528.32 440.5,1525.5C 446.047,1524.45 451.381,1522.78 456.5,1520.5C 462.926,1519.03 468.926,1516.69 474.5,1513.5C 475.167,1513.5 475.833,1513.5 476.5,1513.5C 481.452,1513.16 485.785,1511.49 489.5,1508.5C 489.833,1508.5 490.167,1508.5 490.5,1508.5C 496.669,1507.67 502.335,1505.67 507.5,1502.5C 514.634,1501.26 521.301,1498.92 527.5,1495.5C 533.915,1494.47 539.915,1492.47 545.5,1489.5C 550.503,1487.01 555.836,1485.01 561.5,1483.5C 567.915,1482.47 573.915,1480.47 579.5,1477.5C 580.287,1475.9 581.62,1475.23 583.5,1475.5C 591.578,1472.82 599.578,1470.15 607.5,1467.5C 610.438,1467.02 613.104,1466.02 615.5,1464.5C 629.683,1459.36 644.016,1454.36 658.5,1449.5C 670.241,1446.48 681.574,1442.48 692.5,1437.5C 698.887,1434.56 705.554,1432.23 712.5,1430.5C 715.607,1430.65 718.607,1430.15 721.5,1429C 724.437,1427.2 727.437,1425.7 730.5,1424.5C 732.684,1422.42 735.351,1421.42 738.5,1421.5C 741.649,1421.58 744.316,1420.58 746.5,1418.5C 750.313,1418.06 753.646,1416.73 756.5,1414.5C 756.833,1414.5 757.167,1414.5 757.5,1414.5C 760.746,1413.95 763.746,1412.95 766.5,1411.5C 769.408,1409.4 772.742,1408.4 776.5,1408.5C 786.309,1404.97 795.975,1401.31 805.5,1397.5C 809.915,1397.14 813.915,1395.81 817.5,1393.5C 820.578,1393.38 823.245,1392.38 825.5,1390.5C 828.861,1389.44 832.194,1388.44 835.5,1387.5C 841.767,1386.08 847.767,1384.08 853.5,1381.5C 854.687,1379.02 856.687,1378.02 859.5,1378.5C 861.898,1378.74 863.898,1378.07 865.5,1376.5C 870.288,1375.14 874.955,1373.47 879.5,1371.5C 884.915,1370.81 889.915,1369.14 894.5,1366.5C 895.391,1365.89 896.391,1365.56 897.5,1365.5C 900.649,1365.58 903.316,1364.58 905.5,1362.5C 906.568,1361.57 907.901,1361.23 909.5,1361.5C 912.397,1360.87 915.064,1359.87 917.5,1358.5C 919.848,1356.9 922.514,1355.9 925.5,1355.5C 929.785,1354.74 933.785,1353.41 937.5,1351.5C 944.841,1348.83 952.175,1346.17 959.5,1343.5C 966.845,1341.44 974.179,1339.27 981.5,1337C 983.879,1336.28 985.879,1335.12 987.5,1333.5C 990.706,1332.92 993.706,1331.92 996.5,1330.5C 998.142,1328.92 1000.14,1328.25 1002.5,1328.5C 1004.53,1328.66 1006.53,1328.5 1008.5,1328C 1012.44,1325.86 1016.44,1324.03 1020.5,1322.5C 1027.31,1318.78 1034.65,1316.11 1042.5,1314.5C 1045.58,1314.38 1048.24,1313.38 1050.5,1311.5C 1052.9,1311.74 1054.9,1311.07 1056.5,1309.5C 1057.93,1308.46 1059.6,1307.8 1061.5,1307.5C 1067.14,1307.45 1072.14,1305.78 1076.5,1302.5C 1077.87,1302.66 1079.21,1302.49 1080.5,1302C 1082.76,1301.12 1084.76,1299.96 1086.5,1298.5C 1088.7,1298.12 1090.7,1297.46 1092.5,1296.5C 1095.72,1296.65 1098.38,1295.65 1100.5,1293.5C 1103.86,1293.31 1106.86,1292.31 1109.5,1290.5C 1111.14,1288.92 1113.14,1288.25 1115.5,1288.5C 1120.92,1287.81 1125.92,1286.14 1130.5,1283.5C 1133.87,1282.42 1137.2,1281.42 1140.5,1280.5C 1144.48,1278.28 1148.81,1277.11 1153.5,1277C 1154.38,1276.29 1155.05,1275.46 1155.5,1274.5C 1160.37,1273.12 1165.04,1271.46 1169.5,1269.5C 1172.58,1269.38 1175.24,1268.38 1177.5,1266.5C 1178.57,1265.57 1179.9,1265.23 1181.5,1265.5C 1184.65,1265.58 1187.32,1264.58 1189.5,1262.5C 1198.51,1260.27 1207.18,1257.27 1215.5,1253.5C 1221.91,1252.47 1227.91,1250.47 1233.5,1247.5C 1240.18,1244.08 1247.18,1241.41 1254.5,1239.5C 1261.33,1238.12 1267.66,1235.78 1273.5,1232.5C 1273.83,1232.5 1274.17,1232.5 1274.5,1232.5C 1280.96,1231.46 1286.96,1229.46 1292.5,1226.5C 1293.51,1225.33 1294.85,1224.66 1296.5,1224.5C 1300.54,1223.93 1304.2,1222.6 1307.5,1220.5C 1307.83,1220.5 1308.17,1220.5 1308.5,1220.5C 1312.78,1219.74 1316.78,1218.41 1320.5,1216.5C 1323.68,1215.36 1327.02,1214.69 1330.5,1214.5C 1330.5,1215.5 1330.5,1216.5 1330.5,1217.5 Z"/></g>
<g><path style="opacity:1" fill="#000000" d="M 1560.5,1214.5 C 1562.44,1215.15 1564.44,1215.48 1566.5,1215.5C 1569.36,1216.98 1572.36,1218.31 1575.5,1219.5C 1577.51,1220.92 1579.85,1221.59 1582.5,1221.5C 1588.25,1224.08 1594.25,1226.08 1600.5,1227.5C 1604.52,1229.73 1608.86,1231.4 1613.5,1232.5C 1617.76,1235.05 1622.43,1236.72 1627.5,1237.5C 1629.92,1238.31 1632.25,1239.31 1634.5,1240.5C 1638.5,1242.61 1642.84,1243.94 1647.5,1244.5C 1669.3,1252.73 1691.3,1260.4 1713.5,1267.5C 1717.23,1269.41 1721.23,1270.74 1725.5,1271.5C 1733.18,1275.1 1741.18,1278.1 1749.5,1280.5C 1752.63,1282.99 1756.29,1284.32 1760.5,1284.5C 1768.57,1287.97 1776.9,1290.63 1785.5,1292.5C 1796.15,1297.27 1807.15,1301.27 1818.5,1304.5C 1820.94,1305.87 1823.6,1306.87 1826.5,1307.5C 1830.23,1309.41 1834.23,1310.74 1838.5,1311.5C 1854.22,1317.01 1869.88,1322.68 1885.5,1328.5C 1891.33,1330.71 1897.33,1332.71 1903.5,1334.5C 1912.59,1337.55 1921.59,1340.88 1930.5,1344.5C 1932.51,1345.92 1934.85,1346.59 1937.5,1346.5C 1939.88,1347.57 1942.22,1348.74 1944.5,1350C 1957.69,1353.59 1970.69,1357.76 1983.5,1362.5C 1986.52,1364.4 1989.85,1365.73 1993.5,1366.5C 1999.41,1368.81 2005.41,1370.81 2011.5,1372.5C 2013.1,1374.07 2015.1,1374.74 2017.5,1374.5C 2021.9,1376.69 2026.57,1378.36 2031.5,1379.5C 2033.1,1381.07 2035.1,1381.74 2037.5,1381.5C 2046.6,1385.38 2055.93,1388.71 2065.5,1391.5C 2069,1393.22 2072.67,1394.56 2076.5,1395.5C 2082.84,1398.87 2089.51,1401.2 2096.5,1402.5C 2101.14,1404.16 2105.81,1405.83 2110.5,1407.5C 2121.78,1411.62 2133.11,1415.62 2144.5,1419.5C 2152.34,1422.33 2160.34,1425 2168.5,1427.5C 2177.47,1430.83 2186.47,1434.16 2195.5,1437.5C 2198.14,1439.31 2201.14,1440.31 2204.5,1440.5C 2214.45,1444.15 2224.45,1447.82 2234.5,1451.5C 2237.8,1453.58 2241.47,1454.92 2245.5,1455.5C 2255.68,1458.26 2265.68,1461.59 2275.5,1465.5C 2283.65,1469.66 2292.32,1472.66 2301.5,1474.5C 2303.62,1476.65 2306.28,1477.65 2309.5,1477.5C 2313.24,1479.36 2317.24,1480.69 2321.5,1481.5C 2323.62,1483.65 2326.28,1484.65 2329.5,1484.5C 2331.62,1486.65 2334.28,1487.65 2337.5,1487.5C 2339.03,1488.31 2340.69,1488.98 2342.5,1489.5C 2344.51,1490.92 2346.85,1491.59 2349.5,1491.5C 2351.1,1493.07 2353.1,1493.74 2355.5,1493.5C 2359.83,1494.95 2364.16,1496.61 2368.5,1498.5C 2370.51,1499.92 2372.85,1500.59 2375.5,1500.5C 2378.08,1501.49 2380.74,1502.49 2383.5,1503.5C 2385.62,1505.65 2388.28,1506.65 2391.5,1506.5C 2395.16,1508.7 2399.16,1510.04 2403.5,1510.5C 2405.62,1512.65 2408.28,1513.65 2411.5,1513.5C 2421.71,1517.35 2432.05,1521.02 2442.5,1524.5C 2448.04,1526.64 2453.71,1528.64 2459.5,1530.5C 2464.56,1531.97 2469.56,1533.63 2474.5,1535.5C 2476.1,1537.07 2478.1,1537.74 2480.5,1537.5C 2482.94,1538.87 2485.6,1539.87 2488.5,1540.5C 2490.62,1542.65 2493.28,1543.65 2496.5,1543.5C 2497.83,1543.83 2499.17,1544.17 2500.5,1544.5C 2503.66,1547 2507.33,1548.33 2511.5,1548.5C 2515.81,1550 2520.14,1551.67 2524.5,1553.5C 2526.89,1555.02 2529.56,1556.02 2532.5,1556.5C 2541.3,1559.1 2549.97,1562.1 2558.5,1565.5C 2562.75,1567.92 2567.42,1569.59 2572.5,1570.5C 2576.1,1571.7 2579.77,1572.7 2583.5,1573.5C 2587.59,1575.75 2591.92,1577.42 2596.5,1578.5C 2599.63,1580.99 2603.29,1582.32 2607.5,1582.5C 2608.57,1583.43 2609.9,1583.77 2611.5,1583.5C 2616.53,1586.07 2621.86,1588.07 2627.5,1589.5C 2631.24,1591.36 2635.24,1592.69 2639.5,1593.5C 2641.62,1595.65 2644.28,1596.65 2647.5,1596.5C 2649.1,1598.07 2651.1,1598.74 2653.5,1598.5C 2659.88,1601.43 2666.54,1603.77 2673.5,1605.5C 2675.62,1607.65 2678.28,1608.65 2681.5,1608.5C 2704.34,1616.74 2727.34,1624.74 2750.5,1632.5C 2751.81,1633.23 2753.14,1634.07 2754.5,1635C 2752.14,1636.28 2749.81,1637.44 2747.5,1638.5C 2747.17,1638.5 2746.83,1638.5 2746.5,1638.5C 2738.77,1639.93 2731.44,1642.26 2724.5,1645.5C 2715.71,1647.43 2707.04,1649.76 2698.5,1652.5C 2695.14,1652.69 2692.14,1653.69 2689.5,1655.5C 2689.17,1655.5 2688.83,1655.5 2688.5,1655.5C 2686.1,1655.26 2684.1,1655.93 2682.5,1657.5C 2679.85,1657.41 2677.51,1658.08 2675.5,1659.5C 2672.85,1659.41 2670.51,1660.08 2668.5,1661.5C 2665.85,1661.41 2663.51,1662.08 2661.5,1663.5C 2650.75,1665.53 2640.42,1668.53 2630.5,1672.5C 2630.17,1672.5 2629.83,1672.5 2629.5,1672.5C 2624.04,1673.21 2619.04,1674.88 2614.5,1677.5C 2614.17,1677.5 2613.83,1677.5 2613.5,1677.5C 2609.79,1677.59 2606.45,1678.59 2603.5,1680.5C 2594.65,1682.54 2585.98,1684.88 2577.5,1687.5C 2571.57,1688.55 2565.9,1690.21 2560.5,1692.5C 2557.14,1692.69 2554.14,1693.69 2551.5,1695.5C 2548.85,1695.41 2546.51,1696.08 2544.5,1697.5C 2539.29,1698.46 2534.29,1699.8 2529.5,1701.5C 2527.3,1701.12 2525.64,1701.79 2524.5,1703.5C 2515.48,1705.09 2506.81,1707.43 2498.5,1710.5C 2496.1,1710.26 2494.1,1710.93 2492.5,1712.5C 2489.85,1712.41 2487.51,1713.08 2485.5,1714.5C 2483.9,1714.23 2482.57,1714.57 2481.5,1715.5C 2480.71,1716.61 2480.21,1717.94 2480,1719.5C 2478.87,1743.49 2478.03,1767.49 2477.5,1791.5C 2476.31,1807.14 2475.64,1822.81 2475.5,1838.5C 2475.5,1840.83 2475.5,1843.17 2475.5,1845.5C 2473.92,1854.95 2473.25,1864.62 2473.5,1874.5C 2473.5,1881.5 2473.5,1888.5 2473.5,1895.5C 2473.5,1897.83 2473.5,1900.17 2473.5,1902.5C 2471.98,1914.3 2471.32,1926.3 2471.5,1938.5C 2470.5,1938.5 2469.5,1938.5 2468.5,1938.5C 2467.69,1937.27 2466.69,1936.27 2465.5,1935.5C 2464.09,1933.09 2462.09,1931.42 2459.5,1930.5C 2448.45,1921.77 2437.45,1913.11 2426.5,1904.5C 2425.42,1902.41 2423.75,1901.08 2421.5,1900.5C 2415.44,1896.01 2409.44,1891.35 2403.5,1886.5C 2402.09,1884.09 2400.09,1882.42 2397.5,1881.5C 2394.21,1879.54 2391.21,1877.21 2388.5,1874.5C 2387.09,1872.09 2385.09,1870.42 2382.5,1869.5C 2379.47,1867.98 2376.8,1865.98 2374.5,1863.5C 2373.09,1861.09 2371.09,1859.42 2368.5,1858.5C 2347.87,1843.53 2327.87,1827.86 2308.5,1811.5C 2306.76,1808.76 2304.43,1806.76 2301.5,1805.5C 2298.47,1803.98 2295.8,1801.98 2293.5,1799.5C 2292.09,1797.09 2290.09,1795.42 2287.5,1794.5C 2284.47,1792.98 2281.8,1790.98 2279.5,1788.5C 2278.09,1786.09 2276.09,1784.42 2273.5,1783.5C 2271.97,1782.79 2270.64,1781.79 2269.5,1780.5C 2268.09,1778.09 2266.09,1776.42 2263.5,1775.5C 2230.5,1750.32 2197.83,1724.66 2165.5,1698.5C 2164.42,1696.41 2162.75,1695.08 2160.5,1694.5C 2153.9,1689.9 2147.56,1684.9 2141.5,1679.5C 2140.09,1677.09 2138.09,1675.42 2135.5,1674.5C 2131.91,1672.88 2128.91,1670.54 2126.5,1667.5C 2125.42,1665.41 2123.75,1664.08 2121.5,1663.5C 2114.87,1658.87 2108.54,1653.87 2102.5,1648.5C 2101.42,1646.41 2099.75,1645.08 2097.5,1644.5C 2096.42,1642.41 2094.75,1641.08 2092.5,1640.5C 2063.89,1618.56 2035.55,1596.22 2007.5,1573.5C 2006.09,1571.09 2004.09,1569.42 2001.5,1568.5C 1994.59,1564.21 1988.26,1559.21 1982.5,1553.5C 1981.42,1551.41 1979.75,1550.08 1977.5,1549.5C 1975.6,1549.26 1974.26,1548.26 1973.5,1546.5C 1972.42,1544.41 1970.75,1543.08 1968.5,1542.5C 1967.01,1539.68 1964.67,1538.01 1961.5,1537.5C 1958.98,1535.74 1956.65,1533.74 1954.5,1531.5C 1953.09,1529.09 1951.09,1527.42 1948.5,1526.5C 1944.3,1524.33 1940.3,1521.66 1936.5,1518.5C 1925.1,1509.15 1913.76,1499.81 1902.5,1490.5C 1901.09,1488.09 1899.09,1486.42 1896.5,1485.5C 1893.32,1483.16 1889.98,1480.99 1886.5,1479C 1877.26,1471.58 1868.26,1464.08 1859.5,1456.5C 1858.09,1454.09 1856.09,1452.42 1853.5,1451.5C 1851.6,1451.26 1850.26,1450.26 1849.5,1448.5C 1848.09,1446.09 1846.09,1444.42 1843.5,1443.5C 1840.47,1441.98 1837.8,1439.98 1835.5,1437.5C 1834.42,1435.41 1832.75,1434.08 1830.5,1433.5C 1828.52,1432.52 1826.85,1431.18 1825.5,1429.5C 1824.09,1427.09 1822.09,1425.42 1819.5,1424.5C 1794.52,1405.51 1769.85,1386.18 1745.5,1366.5C 1744.42,1364.41 1742.75,1363.08 1740.5,1362.5C 1736.9,1360.24 1733.56,1357.57 1730.5,1354.5C 1729.42,1352.41 1727.75,1351.08 1725.5,1350.5C 1724.13,1349.49 1722.8,1348.49 1721.5,1347.5C 1720.42,1345.41 1718.75,1344.08 1716.5,1343.5C 1715.42,1341.41 1713.75,1340.08 1711.5,1339.5C 1710.13,1338.49 1708.8,1337.49 1707.5,1336.5C 1706.09,1334.09 1704.09,1332.42 1701.5,1331.5C 1699.6,1331.26 1698.26,1330.26 1697.5,1328.5C 1696.09,1326.09 1694.09,1324.42 1691.5,1323.5C 1648.46,1290.31 1605.79,1256.65 1563.5,1222.5C 1562.09,1220.09 1560.09,1218.42 1557.5,1217.5C 1556.43,1215.12 1557.43,1214.12 1560.5,1214.5 Z"/></g>
<g><path style="opacity:1" fill="#000000" d="M 1296.5,1652.5 C 1291.74,1655.93 1288.07,1660.26 1285.5,1665.5C 1285.17,1665.5 1284.83,1665.5 1284.5,1665.5C 1282.09,1666.91 1280.42,1668.91 1279.5,1671.5C 1278.83,1671.5 1278.5,1671.83 1278.5,1672.5C 1275.15,1674.85 1272.48,1677.85 1270.5,1681.5C 1266.82,1684.18 1263.82,1687.52 1261.5,1691.5C 1256.13,1695.54 1251.8,1700.54 1248.5,1706.5C 1245.89,1708.96 1243.55,1711.63 1241.5,1714.5C 1238.83,1715.17 1237.17,1716.83 1236.5,1719.5C 1232.04,1722.62 1228.71,1726.62 1226.5,1731.5C 1225.5,1731.83 1224.83,1732.5 1224.5,1733.5C 1223.5,1733.41 1222.67,1733.75 1222,1734.5C 1213.27,1744.39 1204.77,1754.39 1196.5,1764.5C 1195.83,1764.5 1195.5,1764.83 1195.5,1765.5C 1192.15,1767.85 1189.48,1770.85 1187.5,1774.5C 1185.14,1775.87 1183.47,1777.87 1182.5,1780.5C 1181.5,1780.41 1180.67,1780.75 1180,1781.5C 1169.64,1794.02 1159.14,1806.35 1148.5,1818.5C 1144.77,1821.23 1141.77,1824.56 1139.5,1828.5C 1132.87,1835.67 1126.2,1843.01 1119.5,1850.5C 1119.5,1850.83 1119.5,1851.17 1119.5,1851.5C 1118.5,1851.41 1117.67,1851.75 1117,1852.5C 1114.56,1854.77 1112.73,1857.43 1111.5,1860.5C 1104.48,1866.19 1098.48,1872.86 1093.5,1880.5C 1090.02,1883.49 1087.02,1886.82 1084.5,1890.5C 1081.15,1892.85 1078.48,1895.85 1076.5,1899.5C 1075.83,1899.5 1075.5,1899.83 1075.5,1900.5C 1072.48,1902.52 1070.15,1905.19 1068.5,1908.5C 1067.83,1908.5 1067.5,1908.83 1067.5,1909.5C 1059.48,1917.19 1052.15,1925.52 1045.5,1934.5C 1044.83,1934.5 1044.5,1934.83 1044.5,1935.5C 1041.15,1937.85 1038.48,1940.85 1036.5,1944.5C 1035.5,1944.41 1034.67,1944.75 1034,1945.5C 1031.59,1948.4 1029.42,1951.4 1027.5,1954.5C 1021.11,1959.56 1015.78,1965.56 1011.5,1972.5C 1010.83,1972.5 1010.5,1972.83 1010.5,1973.5C 1008.14,1974.87 1006.47,1976.87 1005.5,1979.5C 998.807,1984.86 993.141,1991.2 988.5,1998.5C 984.766,2001.23 981.766,2004.56 979.5,2008.5C 978.504,2008.41 977.671,2008.75 977,2009.5C 974.59,2012.4 972.423,2015.4 970.5,2018.5C 967.937,2020.71 965.437,2023.04 963,2025.5C 962.153,2027.19 961.32,2028.86 960.5,2030.5C 958.351,2032.05 956.184,2033.71 954,2035.5C 951.92,2038.07 950.087,2040.73 948.5,2043.5C 947.833,2043.5 947.5,2043.83 947.5,2044.5C 944.48,2046.52 942.146,2049.19 940.5,2052.5C 939.833,2052.5 939.5,2052.83 939.5,2053.5C 933.491,2059.51 927.825,2065.84 922.5,2072.5C 916.822,2076.99 912.155,2082.33 908.5,2088.5C 907.5,2090.17 906.167,2091.5 904.5,2092.5C 902.413,2093.58 901.08,2095.25 900.5,2097.5C 899.833,2097.5 899.5,2097.83 899.5,2098.5C 896.81,2100.19 894.81,2102.53 893.5,2105.5C 892.504,2105.41 891.671,2105.75 891,2106.5C 879.667,2119.17 868.333,2131.83 857,2144.5C 851.882,2149.77 847.382,2155.44 843.5,2161.5C 842.833,2161.5 842.5,2161.83 842.5,2162.5C 839.149,2164.85 836.482,2167.85 834.5,2171.5C 833.728,2172.69 832.728,2173.69 831.5,2174.5C 827.464,2178.53 823.798,2182.87 820.5,2187.5C 819.833,2187.5 819.5,2187.83 819.5,2188.5C 816.149,2190.85 813.482,2193.85 811.5,2197.5C 810.833,2198.83 809.833,2199.83 808.5,2200.5C 803.691,2206.69 798.191,2212.36 792,2217.5C 790.3,2221 788.134,2224 785.5,2226.5C 783.086,2227.91 781.419,2229.91 780.5,2232.5C 779.833,2232.5 779.5,2232.83 779.5,2233.5C 776.149,2235.85 773.482,2238.85 771.5,2242.5C 767.587,2245.24 764.087,2248.58 761,2252.5C 755.338,2258.53 750.171,2264.86 745.5,2271.5C 742.015,2274.53 739.015,2277.86 736.5,2281.5C 722.431,2295.9 709.097,2310.9 696.5,2326.5C 690.11,2331.56 684.777,2337.56 680.5,2344.5C 679.833,2344.5 679.5,2344.83 679.5,2345.5C 677.14,2346.87 675.473,2348.87 674.5,2351.5C 669.929,2354.62 666.263,2358.62 663.5,2363.5C 662.512,2364.8 661.512,2366.13 660.5,2367.5C 658.983,2367.51 657.816,2368.18 657,2369.5C 654.92,2372.07 653.087,2374.73 651.5,2377.5C 650.833,2378.83 649.833,2379.83 648.5,2380.5C 645.097,2382.9 642.43,2385.9 640.5,2389.5C 636.766,2392.23 633.766,2395.56 631.5,2399.5C 630.833,2399.5 630.5,2399.83 630.5,2400.5C 627.149,2402.85 624.482,2405.85 622.5,2409.5C 621.833,2410.5 621.167,2411.5 620.5,2412.5C 618.351,2414.05 616.184,2415.71 614,2417.5C 612.25,2419.73 610.75,2422.07 609.5,2424.5C 608.527,2426.14 607.194,2427.47 605.5,2428.5C 595.496,2439.17 585.83,2450.17 576.5,2461.5C 572.153,2464.85 568.486,2468.85 565.5,2473.5C 563.086,2474.91 561.419,2476.91 560.5,2479.5C 559.833,2479.5 559.5,2479.83 559.5,2480.5C 557.209,2482.12 555.209,2484.12 553.5,2486.5C 550.887,2479.72 549.054,2472.72 548,2465.5C 547.617,2464.94 547.117,2464.61 546.5,2464.5C 545.117,2456.22 543.117,2448.22 540.5,2440.5C 539.075,2435.2 537.742,2429.87 536.5,2424.5C 536.862,2420.92 535.862,2417.92 533.5,2415.5C 533.534,2410.58 532.201,2406.25 529.5,2402.5C 529.378,2398.54 528.378,2394.87 526.5,2391.5C 525.721,2382.57 523.387,2374.23 519.5,2366.5C 519.5,2365.17 519.5,2363.83 519.5,2362.5C 519.88,2360.3 519.213,2358.64 517.5,2357.5C 516.786,2351.91 515.453,2346.57 513.5,2341.5C 514.01,2338.61 513.344,2336.28 511.5,2334.5C 511.829,2331.77 511.163,2329.44 509.5,2327.5C 507.886,2318.01 505.219,2309.01 501.5,2300.5C 499.765,2290.89 497.431,2281.56 494.5,2272.5C 494.204,2270.6 493.537,2268.93 492.5,2267.5C 489.689,2266.53 486.689,2265.86 483.5,2265.5C 477.121,2263.44 470.454,2262.44 463.5,2262.5C 459.072,2262.2 454.739,2261.53 450.5,2260.5C 438.082,2257.68 425.415,2255.68 412.5,2254.5C 412.167,2254.5 411.833,2254.5 411.5,2254.5C 407.081,2253.03 402.414,2252.36 397.5,2252.5C 394.236,2251.68 390.902,2251.34 387.5,2251.5C 387.167,2251.5 386.833,2251.5 386.5,2251.5C 385.737,2250.73 384.737,2250.23 383.5,2250C 365.528,2247.17 347.528,2244.67 329.5,2242.5C 326.167,2242.17 322.833,2241.83 319.5,2241.5C 314.073,2239.86 308.407,2238.86 302.5,2238.5C 272.778,2234.25 243.111,2229.92 213.5,2225.5C 211.369,2224.69 209.036,2224.19 206.5,2224C 206.167,2223.67 205.833,2223.33 205.5,2223C 206.381,2222.29 207.047,2221.46 207.5,2220.5C 210.48,2219.68 213.147,2218.34 215.5,2216.5C 218.346,2216.45 220.68,2215.45 222.5,2213.5C 231.708,2208.73 240.708,2203.73 249.5,2198.5C 254.367,2198.07 258.367,2196.07 261.5,2192.5C 266.402,2191.1 270.735,2188.77 274.5,2185.5C 281.599,2182.12 288.599,2178.45 295.5,2174.5C 297.967,2174.25 299.967,2173.25 301.5,2171.5C 303.698,2171.88 305.365,2171.21 306.5,2169.5C 323.159,2160.5 339.826,2151.5 356.5,2142.5C 357.873,2142.66 359.207,2142.49 360.5,2142C 362.431,2141.1 364.097,2139.93 365.5,2138.5C 365.5,2137.83 365.833,2137.5 366.5,2137.5C 374.461,2134.85 381.795,2131.19 388.5,2126.5C 390.632,2126.45 391.965,2125.45 392.5,2123.5C 393.873,2123.66 395.207,2123.49 396.5,2123C 398.431,2122.1 400.097,2120.93 401.5,2119.5C 409.509,2114.73 417.842,2110.39 426.5,2106.5C 428.674,2106.25 430.341,2105.25 431.5,2103.5C 436.527,2101.32 441.193,2098.48 445.5,2095C 450.643,2093.26 455.643,2091.26 460.5,2089C 463.892,2086.31 467.559,2084.14 471.5,2082.5C 473.848,2082.41 475.514,2081.41 476.5,2079.5C 478.698,2079.88 480.365,2079.21 481.5,2077.5C 486.75,2073.71 492.417,2070.71 498.5,2068.5C 502.605,2067.72 505.939,2065.72 508.5,2062.5C 510.153,2062.34 511.486,2061.67 512.5,2060.5C 515.852,2060.47 518.518,2059.14 520.5,2056.5C 535.074,2049.05 549.407,2041.38 563.5,2033.5C 566.346,2033.45 568.68,2032.45 570.5,2030.5C 572.967,2030.25 574.967,2029.25 576.5,2027.5C 578.833,2026.17 581.167,2024.83 583.5,2023.5C 585.967,2023.25 587.967,2022.25 589.5,2020.5C 592.738,2018.84 596.071,2017.17 599.5,2015.5C 602.1,2014.53 604.434,2013.2 606.5,2011.5C 609.175,2009.83 611.841,2008.16 614.5,2006.5C 617.852,2006.47 620.518,2005.14 622.5,2002.5C 624.954,2001.77 627.287,2000.77 629.5,1999.5C 633.174,1999.29 635.84,1997.63 637.5,1994.5C 638.833,1994.17 640.167,1993.83 641.5,1993.5C 645.954,1992.37 649.621,1990.04 652.5,1986.5C 653.167,1986.5 653.833,1986.5 654.5,1986.5C 660.185,1985.33 664.852,1982.67 668.5,1978.5C 679.63,1973.1 690.63,1967.43 701.5,1961.5C 705.884,1960.81 709.55,1958.81 712.5,1955.5C 719.409,1952.58 726.076,1949.24 732.5,1945.5C 735.014,1945.25 737.348,1944.41 739.5,1943C 741.526,1941.41 743.526,1939.91 745.5,1938.5C 749.168,1937 752.502,1935 755.5,1932.5C 758.346,1932.45 760.68,1931.45 762.5,1929.5C 765.523,1927.98 768.523,1926.31 771.5,1924.5C 773.698,1924.88 775.365,1924.21 776.5,1922.5C 786.248,1916.63 796.248,1911.29 806.5,1906.5C 808.853,1905.66 810.853,1904.33 812.5,1902.5C 819.643,1899.31 826.643,1895.98 833.5,1892.5C 834.873,1892.66 836.207,1892.49 837.5,1892C 840.423,1889.55 843.423,1887.39 846.5,1885.5C 849.157,1885.07 851.491,1884.07 853.5,1882.5C 855.336,1880.41 857.669,1879.08 860.5,1878.5C 863.198,1878.16 865.198,1876.82 866.5,1874.5C 870.5,1872.5 874.5,1870.5 878.5,1868.5C 880.848,1868.41 882.514,1867.41 883.5,1865.5C 884.167,1865.5 884.833,1865.5 885.5,1865.5C 889.988,1864.42 893.655,1862.09 896.5,1858.5C 898.153,1858.34 899.486,1857.67 900.5,1856.5C 903.658,1855.04 906.991,1853.87 910.5,1853C 911.71,1851.96 912.71,1850.79 913.5,1849.5C 924.843,1843.82 936.176,1838.15 947.5,1832.5C 948.873,1832.66 950.207,1832.49 951.5,1832C 954.04,1829.89 956.707,1828.06 959.5,1826.5C 970.866,1819.85 982.532,1813.51 994.5,1807.5C 996.674,1807.25 998.341,1806.25 999.5,1804.5C 1000.17,1804.5 1000.83,1804.5 1001.5,1804.5C 1005.06,1802.67 1008.39,1800.67 1011.5,1798.5C 1016.07,1796.38 1020.41,1794.05 1024.5,1791.5C 1027.08,1791.54 1029.08,1790.54 1030.5,1788.5C 1042.2,1782.44 1053.87,1776.44 1065.5,1770.5C 1067.67,1770.25 1069.34,1769.25 1070.5,1767.5C 1078.19,1763.21 1086.19,1759.21 1094.5,1755.5C 1096.82,1755.01 1098.82,1754.01 1100.5,1752.5C 1102.5,1751.17 1104.5,1749.83 1106.5,1748.5C 1109.81,1748.85 1112.14,1747.52 1113.5,1744.5C 1120.06,1741.95 1126.4,1738.95 1132.5,1735.5C 1136.42,1734.42 1139.76,1732.42 1142.5,1729.5C 1147.77,1728.86 1152.1,1726.53 1155.5,1722.5C 1162.89,1719.91 1169.89,1716.58 1176.5,1712.5C 1178.67,1712.25 1180.34,1711.25 1181.5,1709.5C 1192.13,1703.84 1202.8,1698.17 1213.5,1692.5C 1216.16,1692.07 1218.49,1691.07 1220.5,1689.5C 1220.97,1688.09 1221.97,1687.43 1223.5,1687.5C 1226.85,1687.47 1229.52,1686.14 1231.5,1683.5C 1242.97,1676.93 1254.64,1670.6 1266.5,1664.5C 1268.97,1664.25 1270.97,1663.25 1272.5,1661.5C 1281.06,1657.47 1289.4,1652.97 1297.5,1648C 1298.5,1647.33 1299.5,1647.33 1300.5,1648C 1298.96,1649.37 1297.63,1650.87 1296.5,1652.5 Z"/></g>
<g><path style="opacity:1" fill="#000000" d="M 1594.5,1650.5 C 1596.03,1652.25 1598.03,1653.25 1600.5,1653.5C 1600.84,1654.34 1601.51,1654.67 1602.5,1654.5C 1602.97,1655.91 1603.97,1656.57 1605.5,1656.5C 1617.1,1662.12 1628.43,1668.12 1639.5,1674.5C 1641.9,1676.19 1644.56,1677.53 1647.5,1678.5C 1649.61,1680.77 1652.28,1682.1 1655.5,1682.5C 1665.4,1688.62 1675.74,1693.95 1686.5,1698.5C 1687.69,1700.98 1689.69,1701.98 1692.5,1701.5C 1695.24,1703.56 1698.24,1705.23 1701.5,1706.5C 1705.84,1710.29 1710.84,1712.96 1716.5,1714.5C 1718.34,1716.59 1720.67,1717.92 1723.5,1718.5C 1725.03,1720.25 1727.03,1721.25 1729.5,1721.5C 1731.95,1722.69 1734.28,1724.02 1736.5,1725.5C 1738.03,1727.25 1740.03,1728.25 1742.5,1728.5C 1747.75,1731.13 1753.09,1733.79 1758.5,1736.5C 1758.97,1737.91 1759.97,1738.57 1761.5,1738.5C 1764.13,1739.83 1766.79,1741.16 1769.5,1742.5C 1771.34,1744.59 1773.67,1745.92 1776.5,1746.5C 1780.25,1748.9 1784.25,1750.9 1788.5,1752.5C 1790.84,1755.16 1793.84,1756.5 1797.5,1756.5C 1798.8,1758.82 1800.8,1760.16 1803.5,1760.5C 1808.1,1762.8 1812.76,1765.13 1817.5,1767.5C 1820.3,1770.23 1823.63,1771.9 1827.5,1772.5C 1830.8,1775.68 1834.8,1777.68 1839.5,1778.5C 1841.66,1780.9 1844.33,1782.56 1847.5,1783.5C 1851.25,1785.9 1855.25,1787.9 1859.5,1789.5C 1861.79,1790.83 1864.13,1792.16 1866.5,1793.5C 1868.79,1795.39 1871.46,1796.72 1874.5,1797.5C 1874.84,1798.34 1875.51,1798.67 1876.5,1798.5C 1878.34,1800.59 1880.67,1801.92 1883.5,1802.5C 1896.64,1810.07 1909.97,1817.07 1923.5,1823.5C 1924.64,1825.21 1926.3,1825.88 1928.5,1825.5C 1931.82,1828.8 1935.82,1830.8 1940.5,1831.5C 1943.45,1834.81 1947.12,1836.81 1951.5,1837.5C 1951.5,1837.83 1951.5,1838.17 1951.5,1838.5C 1955.21,1841.02 1959.21,1843.02 1963.5,1844.5C 1968.15,1846.8 1972.81,1849.13 1977.5,1851.5C 1981.84,1855.29 1986.84,1857.96 1992.5,1859.5C 1994.72,1860.98 1997.05,1862.31 1999.5,1863.5C 2001.03,1865.25 2003.03,1866.25 2005.5,1866.5C 2006.64,1868.21 2008.3,1868.88 2010.5,1868.5C 2011.17,1869.17 2011.83,1869.83 2012.5,1870.5C 2014.85,1872.34 2017.52,1873.67 2020.5,1874.5C 2025.19,1876.87 2029.85,1879.2 2034.5,1881.5C 2034.97,1882.91 2035.97,1883.57 2037.5,1883.5C 2040.95,1886.44 2044.95,1888.44 2049.5,1889.5C 2051.18,1891.83 2053.51,1892.83 2056.5,1892.5C 2057.8,1894.82 2059.8,1896.16 2062.5,1896.5C 2065.5,1899.46 2069.16,1901.13 2073.5,1901.5C 2074.8,1903.82 2076.8,1905.16 2079.5,1905.5C 2084.09,1907.79 2088.75,1910.13 2093.5,1912.5C 2093.95,1913.46 2094.62,1914.29 2095.5,1915C 2097.93,1916.59 2100.59,1917.42 2103.5,1917.5C 2105.34,1919.59 2107.67,1920.92 2110.5,1921.5C 2111.69,1923.98 2113.69,1924.98 2116.5,1924.5C 2118.47,1925.91 2120.47,1927.41 2122.5,1929C 2123.79,1929.49 2125.13,1929.66 2126.5,1929.5C 2128.75,1932.39 2131.75,1934.06 2135.5,1934.5C 2135.97,1935.91 2136.97,1936.57 2138.5,1936.5C 2140.17,1937.17 2141.83,1937.83 2143.5,1938.5C 2146.01,1940.92 2149.01,1942.59 2152.5,1943.5C 2156.09,1947.06 2160.42,1949.4 2165.5,1950.5C 2167.06,1950.73 2168.4,1951.4 2169.5,1952.5C 2169.95,1953.46 2170.62,1954.29 2171.5,1955C 2174.45,1956.13 2177.45,1956.96 2180.5,1957.5C 2181.29,1958.79 2182.29,1959.96 2183.5,1961C 2189.22,1963.53 2194.89,1966.03 2200.5,1968.5C 2202.89,1971.09 2205.89,1972.76 2209.5,1973.5C 2213.85,1975.68 2218.18,1978.02 2222.5,1980.5C 2223.64,1982.21 2225.3,1982.88 2227.5,1982.5C 2227.5,1982.83 2227.5,1983.17 2227.5,1983.5C 2229.03,1985.25 2231.03,1986.25 2233.5,1986.5C 2238.08,1988.39 2242.41,1990.73 2246.5,1993.5C 2248.85,1995.34 2251.52,1996.67 2254.5,1997.5C 2257.45,1998.31 2260.12,1999.64 2262.5,2001.5C 2264.34,2003.59 2266.67,2004.92 2269.5,2005.5C 2270.51,2006.67 2271.85,2007.34 2273.5,2007.5C 2275.18,2009.01 2277.18,2010.01 2279.5,2010.5C 2279.84,2011.34 2280.51,2011.67 2281.5,2011.5C 2282.64,2013.21 2284.3,2013.88 2286.5,2013.5C 2286.5,2013.83 2286.5,2014.17 2286.5,2014.5C 2289.52,2016.67 2292.85,2018.34 2296.5,2019.5C 2298.69,2020.76 2301.02,2021.76 2303.5,2022.5C 2309.55,2027.19 2316.21,2030.86 2323.5,2033.5C 2328.02,2036.93 2333.02,2039.59 2338.5,2041.5C 2340.45,2043.56 2342.78,2044.9 2345.5,2045.5C 2347.51,2047.07 2349.84,2048.07 2352.5,2048.5C 2352.95,2049.46 2353.62,2050.29 2354.5,2051C 2356.93,2052.59 2359.59,2053.42 2362.5,2053.5C 2364.34,2055.59 2366.67,2056.92 2369.5,2057.5C 2369.95,2058.46 2370.62,2059.29 2371.5,2060C 2376.33,2061.77 2380.99,2063.6 2385.5,2065.5C 2385.5,2065.83 2385.5,2066.17 2385.5,2066.5C 2390.16,2068.83 2394.82,2071.17 2399.5,2073.5C 2399.84,2074.34 2400.51,2074.67 2401.5,2074.5C 2403.03,2076.25 2405.03,2077.25 2407.5,2077.5C 2417.43,2083.63 2427.77,2088.97 2438.5,2093.5C 2440.48,2096.14 2443.15,2097.47 2446.5,2097.5C 2449.57,2099.89 2452.9,2101.89 2456.5,2103.5C 2457.64,2105.21 2459.3,2105.88 2461.5,2105.5C 2463.79,2106.83 2466.13,2108.16 2468.5,2109.5C 2469.8,2111.82 2471.8,2113.16 2474.5,2113.5C 2489.6,2121.71 2504.93,2129.38 2520.5,2136.5C 2522.82,2138.66 2525.49,2140.33 2528.5,2141.5C 2530.69,2142.76 2533.02,2143.76 2535.5,2144.5C 2537.82,2146.66 2540.49,2148.33 2543.5,2149.5C 2544.57,2150.43 2545.9,2150.77 2547.5,2150.5C 2549.48,2153.16 2552.15,2154.83 2555.5,2155.5C 2557.45,2157.56 2559.78,2158.9 2562.5,2159.5C 2565.52,2161.67 2568.85,2163.34 2572.5,2164.5C 2578.01,2167.75 2583.68,2170.75 2589.5,2173.5C 2596.73,2178.28 2604.4,2182.28 2612.5,2185.5C 2613.51,2186.67 2614.85,2187.34 2616.5,2187.5C 2618.03,2189.25 2620.03,2190.25 2622.5,2190.5C 2625.75,2193.23 2629.41,2195.23 2633.5,2196.5C 2635.03,2198.25 2637.03,2199.25 2639.5,2199.5C 2650.97,2206.59 2662.97,2212.92 2675.5,2218.5C 2677.67,2220.08 2680.01,2221.58 2682.5,2223C 2681.83,2223.33 2681.17,2223.67 2680.5,2224C 2665.32,2226.24 2650.32,2228.74 2635.5,2231.5C 2634.83,2231.5 2634.17,2231.5 2633.5,2231.5C 2622.89,2232.21 2612.55,2233.88 2602.5,2236.5C 2602.17,2236.5 2601.83,2236.5 2601.5,2236.5C 2596.25,2236.3 2591.25,2236.97 2586.5,2238.5C 2585.83,2238.5 2585.17,2238.5 2584.5,2238.5C 2578.88,2238.69 2573.55,2239.69 2568.5,2241.5C 2564.82,2241.72 2561.15,2242.06 2557.5,2242.5C 2553.84,2242.16 2550.51,2242.83 2547.5,2244.5C 2547.17,2244.5 2546.83,2244.5 2546.5,2244.5C 2535.53,2245.06 2524.87,2246.73 2514.5,2249.5C 2514.17,2249.5 2513.83,2249.5 2513.5,2249.5C 2504,2250.48 2494.67,2251.81 2485.5,2253.5C 2479.59,2253.86 2473.93,2254.86 2468.5,2256.5C 2468.17,2256.5 2467.83,2256.5 2467.5,2256.5C 2456.22,2257.16 2445.22,2258.82 2434.5,2261.5C 2422.14,2262.67 2409.8,2264.17 2397.5,2266C 2393.97,2266.67 2392.64,2268.84 2393.5,2272.5C 2391.1,2278.51 2389.43,2284.85 2388.5,2291.5C 2387.09,2294.22 2386.42,2297.22 2386.5,2300.5C 2385.04,2302.93 2383.88,2305.6 2383,2308.5C 2380,2319.5 2377.17,2330.5 2374.5,2341.5C 2373.88,2341.61 2373.38,2341.94 2373,2342.5C 2372.26,2347.54 2371.43,2352.54 2370.5,2357.5C 2368.79,2358.64 2368.12,2360.3 2368.5,2362.5C 2368.5,2363.83 2368.5,2365.17 2368.5,2366.5C 2364.61,2374.23 2362.28,2382.57 2361.5,2391.5C 2360.13,2393.59 2359.47,2395.92 2359.5,2398.5C 2358.03,2400.58 2356.86,2402.92 2356,2405.5C 2355.39,2408.83 2354.89,2412.16 2354.5,2415.5C 2352.14,2417.92 2351.14,2420.92 2351.5,2424.5C 2349.93,2432.17 2348.26,2439.83 2346.5,2447.5C 2345.34,2449.85 2344.34,2452.19 2343.5,2454.5C 2342.44,2455.6 2341.61,2456.93 2341,2458.5C 2340.36,2462.49 2339.86,2466.49 2339.5,2470.5C 2338.31,2475.55 2336.65,2480.55 2334.5,2485.5C 2331.48,2482.81 2328.48,2480.14 2325.5,2477.5C 2323.57,2473.9 2320.9,2470.9 2317.5,2468.5C 2315.91,2465.24 2313.57,2462.57 2310.5,2460.5C 2308.57,2456.9 2305.9,2453.9 2302.5,2451.5C 2300.23,2447.56 2297.23,2444.23 2293.5,2441.5C 2288.87,2435.53 2283.87,2429.86 2278.5,2424.5C 2278.19,2422.86 2277.19,2421.86 2275.5,2421.5C 2273.54,2418.21 2271.21,2415.21 2268.5,2412.5C 2267.83,2412.17 2267.17,2411.83 2266.5,2411.5C 2265.92,2409.25 2264.59,2407.58 2262.5,2406.5C 2259.21,2401.54 2255.21,2397.21 2250.5,2393.5C 2247.54,2388.6 2243.88,2384.27 2239.5,2380.5C 2238.73,2379.31 2237.73,2378.31 2236.5,2377.5C 2234.23,2373.56 2231.23,2370.23 2227.5,2367.5C 2225.23,2363.56 2222.23,2360.23 2218.5,2357.5C 2214.18,2351.85 2209.51,2346.51 2204.5,2341.5C 2201.81,2338.81 2199.48,2335.81 2197.5,2332.5C 2194.18,2329.21 2190.84,2325.88 2187.5,2322.5C 2186.58,2319.91 2184.91,2317.91 2182.5,2316.5C 2181.17,2315.17 2179.83,2313.83 2178.5,2312.5C 2176.57,2308.9 2173.9,2305.9 2170.5,2303.5C 2168.54,2300.21 2166.21,2297.21 2163.5,2294.5C 2162.83,2294.17 2162.17,2293.83 2161.5,2293.5C 2160.92,2291.25 2159.59,2289.58 2157.5,2288.5C 2156.17,2287.17 2154.83,2285.83 2153.5,2284.5C 2150.56,2279.89 2146.9,2275.89 2142.5,2272.5C 2142.17,2271.83 2141.83,2271.17 2141.5,2270.5C 2138.11,2266.29 2134.44,2262.29 2130.5,2258.5C 2128.91,2255.24 2126.57,2252.57 2123.5,2250.5C 2120.9,2246.23 2117.57,2242.56 2113.5,2239.5C 2111.21,2235.87 2108.54,2232.54 2105.5,2229.5C 2103.39,2226.97 2101.06,2224.64 2098.5,2222.5C 2096.57,2218.9 2093.9,2215.9 2090.5,2213.5C 2088.54,2209.94 2085.87,2206.94 2082.5,2204.5C 2081.35,2202.29 2080.35,2199.95 2079.5,2197.5C 2078.58,2196.87 2077.58,2196.54 2076.5,2196.5C 2070.47,2190.14 2064.47,2183.81 2058.5,2177.5C 2058.17,2176.5 2057.5,2175.83 2056.5,2175.5C 2052.87,2170.53 2048.87,2165.87 2044.5,2161.5C 2044.19,2159.86 2043.19,2158.86 2041.5,2158.5C 2039.54,2155.21 2037.21,2152.21 2034.5,2149.5C 2033.83,2149.17 2033.17,2148.83 2032.5,2148.5C 2029.34,2144.39 2026.01,2140.39 2022.5,2136.5C 2021.92,2134.25 2020.59,2132.58 2018.5,2131.5C 2017.5,2130.83 2016.5,2130.17 2015.5,2129.5C 2014.58,2126.91 2012.91,2124.91 2010.5,2123.5C 2008.57,2119.9 2005.9,2116.9 2002.5,2114.5C 2000.57,2110.9 1997.9,2107.9 1994.5,2105.5C 1991.23,2100.56 1987.23,2096.23 1982.5,2092.5C 1981.92,2090.25 1980.59,2088.58 1978.5,2087.5C 1975.2,2082.87 1971.54,2078.53 1967.5,2074.5C 1966.17,2073.17 1964.83,2071.83 1963.5,2070.5C 1961.23,2066.56 1958.23,2063.23 1954.5,2060.5C 1954.26,2058.6 1953.26,2057.26 1951.5,2056.5C 1949.55,2053.88 1947.21,2051.55 1944.5,2049.5C 1943.58,2046.91 1941.91,2044.91 1939.5,2043.5C 1938.83,2042.17 1937.83,2041.17 1936.5,2040.5C 1935.58,2037.91 1933.91,2035.91 1931.5,2034.5C 1930.5,2032.83 1929.17,2031.5 1927.5,2030.5C 1926.58,2027.91 1924.91,2025.91 1922.5,2024.5C 1922.57,2022.97 1921.91,2021.97 1920.5,2021.5C 1919.83,2021.17 1919.17,2020.83 1918.5,2020.5C 1916.57,2016.9 1913.9,2013.9 1910.5,2011.5C 1907.54,2006.6 1903.88,2002.27 1899.5,1998.5C 1899.17,1997.5 1898.5,1996.83 1897.5,1996.5C 1894.9,1992.23 1891.57,1988.56 1887.5,1985.5C 1886.24,1982.57 1884.24,1980.24 1881.5,1978.5C 1879.23,1974.56 1876.23,1971.23 1872.5,1968.5C 1870.11,1966.11 1868.11,1963.45 1866.5,1960.5C 1865.83,1960.17 1865.17,1959.83 1864.5,1959.5C 1863.58,1956.91 1861.91,1954.91 1859.5,1953.5C 1858.58,1950.91 1856.91,1948.91 1854.5,1947.5C 1852.53,1944.86 1850.19,1942.53 1847.5,1940.5C 1846.58,1937.91 1844.91,1935.91 1842.5,1934.5C 1839.56,1929.89 1835.9,1925.89 1831.5,1922.5C 1829.23,1918.56 1826.23,1915.23 1822.5,1912.5C 1821.92,1910.25 1820.59,1908.58 1818.5,1907.5C 1817.17,1906.17 1815.83,1904.83 1814.5,1903.5C 1813.92,1901.25 1812.59,1899.58 1810.5,1898.5C 1807.18,1893.51 1803.18,1889.18 1798.5,1885.5C 1797.92,1883.25 1796.59,1881.58 1794.5,1880.5C 1793.17,1879.17 1791.83,1877.83 1790.5,1876.5C 1789.58,1873.91 1787.91,1871.91 1785.5,1870.5C 1784.83,1869.17 1783.83,1868.17 1782.5,1867.5C 1781.24,1864.57 1779.24,1862.24 1776.5,1860.5C 1773.9,1856.23 1770.57,1852.56 1766.5,1849.5C 1764.91,1846.24 1762.57,1843.57 1759.5,1841.5C 1757.23,1837.56 1754.23,1834.23 1750.5,1831.5C 1748.53,1827.89 1745.86,1824.89 1742.5,1822.5C 1739.9,1818.56 1736.9,1814.9 1733.5,1811.5C 1732.17,1810.83 1731.17,1809.83 1730.5,1808.5C 1727.56,1803.89 1723.9,1799.89 1719.5,1796.5C 1719.17,1795.5 1718.5,1794.83 1717.5,1794.5C 1715.91,1791.24 1713.57,1788.57 1710.5,1786.5C 1709.58,1783.91 1707.91,1781.91 1705.5,1780.5C 1704.17,1779.17 1702.83,1777.83 1701.5,1776.5C 1700.58,1773.91 1698.91,1771.91 1696.5,1770.5C 1694.86,1768.52 1693.19,1766.52 1691.5,1764.5C 1690.58,1761.91 1688.91,1759.91 1686.5,1758.5C 1685.83,1758.17 1685.17,1757.83 1684.5,1757.5C 1683.92,1755.25 1682.59,1753.58 1680.5,1752.5C 1678.21,1748.87 1675.54,1745.54 1672.5,1742.5C 1672.17,1742.5 1671.83,1742.5 1671.5,1742.5C 1669.54,1739.21 1667.21,1736.21 1664.5,1733.5C 1663.83,1733.17 1663.17,1732.83 1662.5,1732.5C 1659.56,1727.89 1655.9,1723.89 1651.5,1720.5C 1648.92,1716.57 1645.92,1712.91 1642.5,1709.5C 1641.67,1707.74 1640.34,1706.4 1638.5,1705.5C 1636.19,1702.85 1633.86,1700.19 1631.5,1697.5C 1629.23,1693.56 1626.23,1690.23 1622.5,1687.5C 1620.55,1683.97 1617.88,1680.97 1614.5,1678.5C 1611.9,1674.23 1608.57,1670.56 1604.5,1667.5C 1602.57,1663.9 1599.9,1660.9 1596.5,1658.5C 1595.58,1655.91 1593.91,1653.91 1591.5,1652.5C 1586.42,1646.71 1587.42,1646.04 1594.5,1650.5 Z"/></g>
</svg>
